<svg xmlns="http://www.w3.org/2000/svg" xmlns:xlink="http://www.w3.org/1999/xlink" width="1000" zoomAndPan="magnify" viewBox="0 0 750 149.999998" height="200" preserveAspectRatio="xMidYMid meet" version="1.0"><defs><g/></defs><g fill="#ff60b0" fill-opacity="0.4"><g transform="translate(18.232579, 99.664915)"><g><path d="M 4.222656 1.3125 C 7.644531 0.726562 11.070312 0.507812 14.492188 0.4375 C 15.074219 0.507812 15.730469 0.582031 16.386719 0.582031 C 17.113281 0.582031 17.914062 0.507812 18.640625 0.363281 C 20.246094 0.21875 21.410156 -1.820312 21.410156 -3.421875 C 21.410156 -4.515625 20.828125 -5.460938 19.445312 -5.460938 C 16.75 -5.460938 16.457031 -5.390625 15.949219 -5.972656 C 17.914062 -9.539062 18.640625 -14.128906 19.226562 -17.476562 C 20.390625 -18.570312 21.628906 -19.226562 23.449219 -19.734375 C 25.851562 -19.734375 26.945312 -19.878906 27.746094 -19.371094 C 27.671875 -18.859375 27.671875 -18.277344 27.671875 -17.695312 C 27.671875 -17.113281 27.671875 -16.53125 27.746094 -16.019531 C 27.816406 -14.492188 28.546875 -13.980469 29.492188 -13.980469 C 31.023438 -13.980469 33.0625 -15.4375 33.28125 -16.820312 C 33.570312 -17.839844 33.789062 -18.859375 33.789062 -19.734375 C 33.789062 -20.390625 33.644531 -20.972656 33.496094 -21.484375 C 33.933594 -23.59375 34.882812 -25.34375 36.121094 -26.726562 C 36.339844 -27.234375 36.484375 -27.746094 36.484375 -28.183594 C 36.484375 -29.855469 35.027344 -31.242188 33.496094 -31.242188 C 32.769531 -31.242188 32.042969 -30.875 31.386719 -30.148438 C 30.003906 -27.234375 29.566406 -26.363281 28.691406 -25.851562 C 26.070312 -25.707031 24.757812 -25.488281 23.738281 -25.488281 C 22.71875 -25.488281 21.917969 -25.707031 20.246094 -26.363281 L 21.554688 -33.789062 C 22.355469 -36.628906 23.011719 -37.210938 26.289062 -37.285156 C 27.164062 -37.285156 28.253906 -37.359375 29.421875 -37.359375 C 31.675781 -37.359375 34.007812 -37.066406 34.664062 -35.320312 C 34.953125 -34.082031 35.828125 -33.570312 36.847656 -33.570312 C 38.523438 -33.570312 40.417969 -34.953125 40.34375 -36.703125 C 40.269531 -37.285156 40.269531 -37.792969 40.269531 -38.230469 C 40.269531 -39.613281 40.488281 -40.707031 40.851562 -41.871094 C 40.925781 -42.089844 40.925781 -42.308594 40.925781 -42.527344 C 40.925781 -44.128906 39.832031 -45.078125 38.160156 -44.929688 C 33.425781 -44.492188 28.765625 -43.621094 24.03125 -43.839844 C 20.246094 -43.984375 16.53125 -45.222656 12.742188 -45.222656 C 10.851562 -45.222656 9.539062 -43.183594 9.539062 -41.507812 C 9.539062 -40.417969 10.121094 -39.46875 11.503906 -39.398438 L 14.929688 -38.960938 C 13.910156 -28.253906 7.355469 -18.058594 6.84375 -6.917969 C 5.605469 -5.972656 4.222656 -5.097656 2.621094 -4.003906 C 1.964844 -3.566406 1.527344 -2.546875 1.527344 -1.527344 C 1.527344 0 2.332031 1.527344 4.222656 1.3125 Z M 4.222656 1.3125 "/></g></g></g><g fill="#ff60b0" fill-opacity="0.4"><g transform="translate(59.157094, 99.664915)"><g><path d="M 19.371094 1.675781 C 20.097656 1.675781 20.898438 1.601562 21.628906 1.457031 C 31.75 0.65625 43.039062 -7.863281 45.949219 -17.039062 C 46.898438 -19.734375 47.40625 -22.9375 47.40625 -26.289062 C 47.40625 -37.210938 42.019531 -49.445312 29.492188 -48.570312 C 28.109375 -49.007812 26.578125 -49.226562 25.050781 -49.226562 C 23.519531 -49.226562 21.992188 -49.007812 20.316406 -48.5 C 11.214844 -46.097656 5.023438 -36.265625 2.984375 -28.328125 L 1.820312 -21.992188 C 1.601562 -20.753906 1.457031 -19.445312 1.457031 -18.207031 C 1.457031 -15.4375 2.039062 -12.742188 3.421875 -10.269531 C 7.574219 -3.058594 9.902344 -0.65625 15.148438 0.726562 C 16.53125 1.382812 17.914062 1.675781 19.371094 1.675781 Z M 22.285156 -4.953125 C 18.351562 -4.804688 16.601562 -5.605469 14.054688 -8.882812 C 11.796875 -11.652344 10.777344 -15.148438 10.777344 -18.789062 C 10.777344 -23.8125 12.742188 -29.203125 15.800781 -33.207031 C 19.152344 -37.359375 21.117188 -38.960938 24.105469 -40.78125 C 25.632812 -41.945312 25.851562 -42.238281 27.308594 -42.238281 C 27.964844 -42.238281 28.984375 -42.164062 30.511719 -42.089844 C 35.171875 -38.886719 37.867188 -31.605469 37.867188 -25.195312 C 37.867188 -23.667969 37.722656 -22.136719 37.359375 -20.753906 C 35.753906 -14.273438 28.617188 -6.191406 22.285156 -4.953125 Z M 22.285156 -4.953125 "/></g></g></g><g fill="#ff60b0" fill-opacity="0.4"><g transform="translate(108.018923, 99.664915)"><g><path d="M 4.152344 1.675781 C 7.574219 1.164062 10.851562 0.875 14.054688 0.875 C 15.292969 0.875 16.53125 0.945312 17.769531 1.019531 L 20.171875 1.09375 C 20.464844 1.164062 20.753906 1.164062 20.972656 1.164062 C 22.867188 1.164062 23.8125 -0.65625 23.8125 -2.332031 C 23.8125 -3.640625 23.230469 -4.804688 22.066406 -4.804688 C 21.917969 -4.804688 21.699219 -4.804688 21.484375 -4.734375 C 19.953125 -4.371094 18.933594 -4.078125 18.277344 -4.078125 C 17.332031 -4.078125 17.113281 -4.515625 17.113281 -5.605469 C 17.113281 -6.625 17.332031 -8.230469 17.40625 -10.558594 L 18.351562 -14.78125 L 19.589844 -19.296875 C 24.394531 -16.3125 25.558594 -12.015625 27.890625 -6.117188 C 29.785156 -0.945312 32.988281 1.601562 37.648438 1.601562 C 38.449219 1.601562 39.25 1.527344 40.125 1.382812 C 42.527344 1.164062 44.710938 0.21875 45.585938 -3.132812 C 45.660156 -3.351562 45.660156 -3.566406 45.660156 -3.785156 C 45.660156 -4.878906 45.003906 -6.261719 43.328125 -6.261719 C 37.503906 -6.261719 35.390625 -13.761719 32.113281 -19.808594 C 38.59375 -22.210938 44.421875 -28.617188 44.421875 -35.027344 C 44.421875 -35.464844 44.421875 -35.972656 44.347656 -36.410156 C 43.257812 -44.785156 34.300781 -46.316406 25.777344 -46.316406 C 21.554688 -46.316406 17.476562 -45.949219 14.492188 -45.804688 L 11.433594 -46.824219 C 11.214844 -46.898438 10.996094 -46.96875 10.851562 -46.96875 C 9.320312 -46.96875 7.71875 -45.078125 7.71875 -43.328125 C 7.71875 -42.527344 8.082031 -41.800781 8.957031 -41.21875 L 11.503906 -39.90625 C 13.835938 -38.011719 15 -35.101562 15 -30.949219 C 15 -29.929688 14.929688 -28.765625 14.78125 -27.527344 C 14.636719 -27.234375 12.378906 -19.445312 12.015625 -17.257812 C 10.195312 -12.378906 8.082031 -8.230469 5.824219 -4.222656 L 4.371094 -4.078125 C 2.402344 -3.859375 1.382812 -2.257812 1.382812 -0.800781 C 1.382812 0.65625 2.332031 1.894531 4.152344 1.675781 Z M 27.527344 -25.777344 C 26.144531 -26.652344 24.832031 -27.089844 23.230469 -27.089844 C 22.574219 -27.089844 21.847656 -27.015625 21.117188 -26.871094 C 21.992188 -30.875 23.375 -35.320312 23.085938 -38.8125 C 26.144531 -39.46875 28.328125 -39.90625 29.929688 -39.90625 C 31.894531 -39.90625 33.132812 -39.25 34.226562 -37.285156 C 34.882812 -36.628906 35.246094 -35.753906 35.246094 -34.882812 C 35.246094 -33.28125 34.226562 -31.460938 32.113281 -29.492188 L 27.964844 -25.996094 Z M 27.527344 -25.777344 "/></g></g></g><g fill="#ff60b0" fill-opacity="0.4"><g transform="translate(155.13308, 99.664915)"><g/></g></g><g fill="#ff60b0" fill-opacity="0.4"><g transform="translate(178.435292, 99.664915)"><g><path d="M 4.078125 3.277344 L 7.863281 2.476562 C 10.777344 2.546875 13.617188 2.765625 16.53125 2.984375 C 17.988281 3.132812 20.027344 1.019531 20.027344 -0.945312 C 20.027344 -1.527344 19.878906 -2.039062 19.515625 -2.476562 C 18.058594 -3.785156 16.019531 -4.660156 15.800781 -6.335938 C 18.859375 -9.46875 22.136719 -15.875 23.230469 -15.875 C 23.375 -15.875 23.449219 -15.730469 23.519531 -15.367188 C 24.90625 -9.683594 25.34375 -8.15625 26.070312 -6.335938 L 25.125 -4.953125 L 24.613281 -4.953125 L 24.613281 -4.804688 C 23.304688 -4.222656 22.066406 -2.476562 22.066406 -1.019531 C 22.066406 -0.0742188 22.71875 0.800781 24.394531 0.875 C 25.558594 1.019531 26.726562 0.800781 27.816406 0.292969 L 28.835938 0.144531 C 30.875 1.09375 33.644531 1.382812 36.339844 1.382812 C 38.160156 1.382812 39.90625 1.238281 41.21875 1.164062 C 42.820312 1.09375 43.910156 -0.726562 43.910156 -2.257812 C 43.910156 -3.421875 43.328125 -4.515625 41.945312 -4.660156 C 40.632812 -4.878906 39.179688 -4.953125 37.722656 -5.242188 L 37.210938 -6.992188 C 35.683594 -11.871094 33.425781 -19.953125 32.1875 -22.574219 C 33.714844 -26.363281 41.800781 -39.25 48.5 -39.25 C 50.394531 -39.25 51.777344 -41.4375 51.777344 -43.109375 C 51.777344 -44.203125 51.195312 -45.078125 49.808594 -45.078125 L 36.773438 -45.078125 C 34.953125 -45.078125 33.570312 -43.109375 33.570312 -41.4375 C 33.570312 -40.417969 34.152344 -39.46875 35.535156 -39.25 C 36.265625 -38.960938 33.425781 -34.226562 29.203125 -28.617188 C 27.964844 -32.84375 26.796875 -38.449219 27.089844 -38.304688 C 28.910156 -38.304688 30.367188 -40.34375 30.367188 -42.019531 C 30.367188 -43.109375 29.785156 -43.984375 28.402344 -44.203125 C 28.035156 -44.277344 27.671875 -44.277344 27.308594 -44.277344 C 26.726562 -44.277344 26.289062 -44.203125 25.851562 -44.128906 C 24.539062 -44.128906 23.304688 -44.058594 21.992188 -44.058594 C 19.152344 -44.058594 16.3125 -44.203125 13.472656 -44.929688 C 11.433594 -45.367188 9.320312 -43.039062 9.320312 -41.21875 C 9.320312 -40.34375 9.902344 -39.542969 11.214844 -39.324219 L 12.960938 -38.960938 L 13.835938 -38.59375 C 16.457031 -38.304688 18.714844 -28.402344 19.589844 -26.433594 L 21.484375 -21.847656 C 16.457031 -16.3125 12.523438 -12.523438 6.917969 -5.242188 C 5.753906 -4.371094 5.023438 -3.714844 3.058594 -2.332031 C 2.183594 -1.894531 1.527344 -0.363281 1.527344 0.945312 C 1.527344 2.332031 2.257812 3.566406 4.078125 3.277344 Z M 4.078125 3.277344 "/></g></g></g><g fill="#ff60b0" fill-opacity="0.4"><g transform="translate(228.243773, 99.664915)"><g/></g></g><g fill="#ff60b0" fill-opacity="0.4"><g transform="translate(251.545985, 99.664915)"><g><path d="M 19.953125 1.019531 C 21.554688 1.019531 23.085938 0.945312 24.613281 0.65625 C 25.488281 0.726562 26.214844 0.800781 26.945312 0.800781 C 34.082031 0.800781 35.828125 -4.222656 39.03125 -11.214844 C 39.25 -11.722656 39.324219 -12.160156 39.324219 -12.597656 C 39.324219 -13.980469 38.230469 -14.855469 36.921875 -14.855469 C 35.902344 -14.855469 34.664062 -14.199219 34.007812 -12.671875 L 29.054688 -8.300781 C 25.777344 -4.804688 21.335938 -6.191406 15.148438 -5.535156 C 17.839844 -10.414062 18.351562 -16.386719 19.296875 -21.410156 L 20.246094 -27.816406 C 21.265625 -30.441406 22.210938 -33.207031 22.429688 -35.828125 C 23.667969 -38.8125 24.394531 -39.761719 27.597656 -40.269531 C 29.054688 -40.632812 29.785156 -42.019531 29.785156 -43.328125 C 29.785156 -44.710938 28.984375 -46.023438 27.234375 -45.878906 L 24.324219 -45.148438 C 23.375 -45.003906 22.355469 -44.929688 21.335938 -44.929688 C 18.640625 -44.929688 15.800781 -45.367188 13.109375 -45.367188 C 12.523438 -45.367188 11.871094 -45.367188 11.289062 -45.296875 C 9.613281 -45.148438 8.519531 -43.328125 8.519531 -41.726562 C 8.519531 -40.488281 9.175781 -39.398438 10.777344 -39.398438 C 11.070312 -39.398438 11.433594 -39.46875 11.796875 -39.542969 C 12.597656 -38.304688 12.960938 -36.703125 12.960938 -34.882812 C 12.960938 -29.566406 10.050781 -22.574219 9.03125 -18.570312 C 8.375 -15.875 7.28125 -11.722656 7.28125 -8.300781 L 3.058594 -5.316406 C 2.113281 -4.878906 1.527344 -3.421875 1.527344 -1.964844 C 1.527344 -0.363281 2.332031 1.238281 4.152344 0.945312 C 5.898438 0.65625 7.574219 0.507812 9.25 0.507812 C 12.816406 0.507812 16.386719 1.019531 19.953125 1.019531 Z M 19.953125 1.019531 "/></g></g></g><g fill="#ff60b0" fill-opacity="0.4"><g transform="translate(290.868484, 99.664915)"><g><path d="M 19.371094 1.675781 C 20.097656 1.675781 20.898438 1.601562 21.628906 1.457031 C 31.75 0.65625 43.039062 -7.863281 45.949219 -17.039062 C 46.898438 -19.734375 47.40625 -22.9375 47.40625 -26.289062 C 47.40625 -37.210938 42.019531 -49.445312 29.492188 -48.570312 C 28.109375 -49.007812 26.578125 -49.226562 25.050781 -49.226562 C 23.519531 -49.226562 21.992188 -49.007812 20.316406 -48.5 C 11.214844 -46.097656 5.023438 -36.265625 2.984375 -28.328125 L 1.820312 -21.992188 C 1.601562 -20.753906 1.457031 -19.445312 1.457031 -18.207031 C 1.457031 -15.4375 2.039062 -12.742188 3.421875 -10.269531 C 7.574219 -3.058594 9.902344 -0.65625 15.148438 0.726562 C 16.53125 1.382812 17.914062 1.675781 19.371094 1.675781 Z M 22.285156 -4.953125 C 18.351562 -4.804688 16.601562 -5.605469 14.054688 -8.882812 C 11.796875 -11.652344 10.777344 -15.148438 10.777344 -18.789062 C 10.777344 -23.8125 12.742188 -29.203125 15.800781 -33.207031 C 19.152344 -37.359375 21.117188 -38.960938 24.105469 -40.78125 C 25.632812 -41.945312 25.851562 -42.238281 27.308594 -42.238281 C 27.964844 -42.238281 28.984375 -42.164062 30.511719 -42.089844 C 35.171875 -38.886719 37.867188 -31.605469 37.867188 -25.195312 C 37.867188 -23.667969 37.722656 -22.136719 37.359375 -20.753906 C 35.753906 -14.273438 28.617188 -6.191406 22.285156 -4.953125 Z M 22.285156 -4.953125 "/></g></g></g><g fill="#ff60b0" fill-opacity="0.4"><g transform="translate(339.730314, 99.664915)"><g><path d="M 17.039062 0.945312 C 18.351562 0.945312 19.734375 0.21875 20.097656 -1.164062 L 22.285156 -5.171875 C 32.113281 -26.363281 38.378906 -33.207031 39.980469 -37.722656 L 45.878906 -43.402344 C 46.460938 -44.277344 46.75 -45.296875 46.75 -46.167969 C 46.75 -47.550781 46.097656 -48.644531 44.640625 -48.644531 C 44.277344 -48.644531 43.910156 -48.644531 43.546875 -48.5 C 42.089844 -47.917969 40.707031 -47.699219 39.324219 -47.699219 C 37.792969 -47.699219 36.265625 -47.988281 34.664062 -48.207031 C 32.695312 -48.5 31.167969 -46.53125 31.167969 -44.710938 C 31.167969 -43.984375 31.386719 -43.257812 31.894531 -42.746094 C 34.082031 -40.925781 34.734375 -40.269531 34.589844 -38.8125 L 33.570312 -36.484375 C 29.636719 -30.804688 27.382812 -26.507812 21.699219 -15.875 L 19.371094 -23.59375 L 16.75 -31.09375 C 16.53125 -32.550781 16.386719 -33.933594 16.386719 -35.246094 C 16.386719 -38.523438 17.257812 -41 19.515625 -41.289062 C 21.265625 -41.363281 22.574219 -43.472656 22.574219 -45.148438 C 22.574219 -46.316406 21.917969 -47.261719 20.464844 -47.1875 C 16.457031 -46.96875 12.523438 -46.898438 8.519531 -46.898438 L 4.804688 -46.898438 C 2.984375 -46.898438 1.675781 -44.859375 1.675781 -43.183594 C 1.675781 -42.019531 2.332031 -41 3.785156 -41 L 4.585938 -41 C 6.625 -41.871094 7.210938 -32.84375 8.449219 -29.128906 C 10.921875 -19.878906 14.347656 -10.703125 14.710938 -1.238281 C 14.78125 0.292969 15.875 0.945312 17.039062 0.945312 Z M 12.089844 -40.78125 L 11.941406 -41 L 12.089844 -41 Z M 12.089844 -40.78125 "/></g></g></g><g fill="#ff60b0" fill-opacity="0.4"><g transform="translate(385.752189, 99.664915)"><g><path d="M 23.230469 0.945312 C 33.351562 0.945312 37.867188 -2.984375 40.199219 -10.921875 C 40.269531 -11.140625 40.269531 -11.359375 40.269531 -11.652344 C 40.269531 -13.109375 39.03125 -14.128906 37.648438 -14.128906 C 36.992188 -14.128906 36.265625 -13.980469 35.683594 -13.472656 C 31.894531 -10.050781 28.765625 -6.84375 24.03125 -5.753906 C 21.410156 -5.171875 18.640625 -5.097656 15.875 -5.023438 C 17.839844 -8.300781 17.621094 -12.523438 19.226562 -18.058594 C 19.660156 -19.152344 21.410156 -19.660156 23.085938 -19.660156 C 24.90625 -19.660156 26.726562 -19.007812 26.871094 -17.914062 L 26.726562 -16.675781 C 26.578125 -15.074219 27.597656 -14.417969 28.765625 -14.417969 C 30.292969 -14.417969 32.042969 -15.4375 32.332031 -16.96875 L 32.625 -18.933594 C 33.132812 -21.992188 34.515625 -24.832031 35.683594 -27.816406 C 35.753906 -28.109375 35.828125 -28.402344 35.828125 -28.617188 C 35.828125 -30.074219 34.589844 -30.730469 33.207031 -30.730469 C 32.332031 -30.730469 31.386719 -30.441406 30.730469 -29.929688 C 28.472656 -27.308594 27.527344 -26.214844 24.25 -25.777344 C 23.230469 -25.632812 22.429688 -25.558594 21.773438 -25.558594 C 21.117188 -25.558594 20.609375 -25.632812 20.316406 -25.851562 C 22.210938 -32.550781 22.5 -35.320312 23.957031 -38.59375 C 27.671875 -38.449219 31.460938 -38.886719 35.535156 -38.886719 C 35.902344 -38.886719 36.191406 -38.960938 36.484375 -39.105469 C 36.484375 -37.722656 36.484375 -36.339844 36.703125 -34.882812 C 36.847656 -33.351562 37.648438 -32.769531 38.59375 -32.769531 C 40.269531 -32.769531 42.308594 -34.515625 42.308594 -36.484375 C 42.308594 -37.285156 42.164062 -37.941406 42.164062 -38.667969 C 42.164062 -40.199219 42.382812 -41.726562 42.382812 -43.257812 C 42.382812 -45.148438 40.78125 -45.730469 39.613281 -45.660156 C 38.378906 -45.511719 37.140625 -45.511719 35.902344 -45.511719 C 34.445312 -45.511719 32.914062 -45.511719 31.386719 -45.585938 L 18.425781 -44.859375 C 16.019531 -45.078125 13.617188 -45.441406 11.214844 -45.367188 C 9.539062 -45.296875 7.5 -43.183594 7.5 -41.507812 C 7.5 -40.632812 8.011719 -39.90625 9.394531 -39.613281 C 10.851562 -39.179688 11.941406 -38.886719 13.109375 -38.8125 C 14.054688 -37.210938 14.347656 -36.191406 14.347656 -34.664062 C 14.347656 -33.425781 14.128906 -31.824219 13.761719 -29.273438 C 11.578125 -22.136719 5.753906 -14.636719 5.753906 -5.753906 L 3.785156 -4.734375 C 2.476562 -4.222656 1.675781 -2.765625 1.675781 -1.457031 C 1.675781 -0.144531 2.402344 0.945312 4.152344 0.875 C 9.25 0.4375 14.492188 0.726562 19.660156 0.4375 C 19.878906 0.726562 20.316406 0.875 20.753906 0.875 C 21.628906 0.945312 22.429688 0.945312 23.230469 0.945312 Z M 23.230469 0.945312 "/></g></g></g><g fill="#ff60b0" fill-opacity="0.4"><g transform="translate(429.589473, 99.664915)"><g/></g></g><g fill="#ff60b0" fill-opacity="0.4"><g transform="translate(452.891684, 99.664915)"><g><path d="M 19.953125 1.019531 C 21.554688 1.019531 23.085938 0.945312 24.613281 0.65625 C 25.488281 0.726562 26.214844 0.800781 26.945312 0.800781 C 34.082031 0.800781 35.828125 -4.222656 39.03125 -11.214844 C 39.25 -11.722656 39.324219 -12.160156 39.324219 -12.597656 C 39.324219 -13.980469 38.230469 -14.855469 36.921875 -14.855469 C 35.902344 -14.855469 34.664062 -14.199219 34.007812 -12.671875 L 29.054688 -8.300781 C 25.777344 -4.804688 21.335938 -6.191406 15.148438 -5.535156 C 17.839844 -10.414062 18.351562 -16.386719 19.296875 -21.410156 L 20.246094 -27.816406 C 21.265625 -30.441406 22.210938 -33.207031 22.429688 -35.828125 C 23.667969 -38.8125 24.394531 -39.761719 27.597656 -40.269531 C 29.054688 -40.632812 29.785156 -42.019531 29.785156 -43.328125 C 29.785156 -44.710938 28.984375 -46.023438 27.234375 -45.878906 L 24.324219 -45.148438 C 23.375 -45.003906 22.355469 -44.929688 21.335938 -44.929688 C 18.640625 -44.929688 15.800781 -45.367188 13.109375 -45.367188 C 12.523438 -45.367188 11.871094 -45.367188 11.289062 -45.296875 C 9.613281 -45.148438 8.519531 -43.328125 8.519531 -41.726562 C 8.519531 -40.488281 9.175781 -39.398438 10.777344 -39.398438 C 11.070312 -39.398438 11.433594 -39.46875 11.796875 -39.542969 C 12.597656 -38.304688 12.960938 -36.703125 12.960938 -34.882812 C 12.960938 -29.566406 10.050781 -22.574219 9.03125 -18.570312 C 8.375 -15.875 7.28125 -11.722656 7.28125 -8.300781 L 3.058594 -5.316406 C 2.113281 -4.878906 1.527344 -3.421875 1.527344 -1.964844 C 1.527344 -0.363281 2.332031 1.238281 4.152344 0.945312 C 5.898438 0.65625 7.574219 0.507812 9.25 0.507812 C 12.816406 0.507812 16.386719 1.019531 19.953125 1.019531 Z M 19.953125 1.019531 "/></g></g></g><g fill="#ff60b0" fill-opacity="0.4"><g transform="translate(492.214157, 99.664915)"><g><path d="M 23.230469 0.945312 C 33.351562 0.945312 37.867188 -2.984375 40.199219 -10.921875 C 40.269531 -11.140625 40.269531 -11.359375 40.269531 -11.652344 C 40.269531 -13.109375 39.03125 -14.128906 37.648438 -14.128906 C 36.992188 -14.128906 36.265625 -13.980469 35.683594 -13.472656 C 31.894531 -10.050781 28.765625 -6.84375 24.03125 -5.753906 C 21.410156 -5.171875 18.640625 -5.097656 15.875 -5.023438 C 17.839844 -8.300781 17.621094 -12.523438 19.226562 -18.058594 C 19.660156 -19.152344 21.410156 -19.660156 23.085938 -19.660156 C 24.90625 -19.660156 26.726562 -19.007812 26.871094 -17.914062 L 26.726562 -16.675781 C 26.578125 -15.074219 27.597656 -14.417969 28.765625 -14.417969 C 30.292969 -14.417969 32.042969 -15.4375 32.332031 -16.96875 L 32.625 -18.933594 C 33.132812 -21.992188 34.515625 -24.832031 35.683594 -27.816406 C 35.753906 -28.109375 35.828125 -28.402344 35.828125 -28.617188 C 35.828125 -30.074219 34.589844 -30.730469 33.207031 -30.730469 C 32.332031 -30.730469 31.386719 -30.441406 30.730469 -29.929688 C 28.472656 -27.308594 27.527344 -26.214844 24.25 -25.777344 C 23.230469 -25.632812 22.429688 -25.558594 21.773438 -25.558594 C 21.117188 -25.558594 20.609375 -25.632812 20.316406 -25.851562 C 22.210938 -32.550781 22.5 -35.320312 23.957031 -38.59375 C 27.671875 -38.449219 31.460938 -38.886719 35.535156 -38.886719 C 35.902344 -38.886719 36.191406 -38.960938 36.484375 -39.105469 C 36.484375 -37.722656 36.484375 -36.339844 36.703125 -34.882812 C 36.847656 -33.351562 37.648438 -32.769531 38.59375 -32.769531 C 40.269531 -32.769531 42.308594 -34.515625 42.308594 -36.484375 C 42.308594 -37.285156 42.164062 -37.941406 42.164062 -38.667969 C 42.164062 -40.199219 42.382812 -41.726562 42.382812 -43.257812 C 42.382812 -45.148438 40.78125 -45.730469 39.613281 -45.660156 C 38.378906 -45.511719 37.140625 -45.511719 35.902344 -45.511719 C 34.445312 -45.511719 32.914062 -45.511719 31.386719 -45.585938 L 18.425781 -44.859375 C 16.019531 -45.078125 13.617188 -45.441406 11.214844 -45.367188 C 9.539062 -45.296875 7.5 -43.183594 7.5 -41.507812 C 7.5 -40.632812 8.011719 -39.90625 9.394531 -39.613281 C 10.851562 -39.179688 11.941406 -38.886719 13.109375 -38.8125 C 14.054688 -37.210938 14.347656 -36.191406 14.347656 -34.664062 C 14.347656 -33.425781 14.128906 -31.824219 13.761719 -29.273438 C 11.578125 -22.136719 5.753906 -14.636719 5.753906 -5.753906 L 3.785156 -4.734375 C 2.476562 -4.222656 1.675781 -2.765625 1.675781 -1.457031 C 1.675781 -0.144531 2.402344 0.945312 4.152344 0.875 C 9.25 0.4375 14.492188 0.726562 19.660156 0.4375 C 19.878906 0.726562 20.316406 0.875 20.753906 0.875 C 21.628906 0.945312 22.429688 0.945312 23.230469 0.945312 Z M 23.230469 0.945312 "/></g></g></g><g fill="#ff60b0" fill-opacity="0.4"><g transform="translate(536.051441, 99.664915)"><g><path d="M 17.476562 1.238281 C 19.953125 1.238281 22.5 0.875 24.832031 -0.21875 L 25.558594 -0.582031 L 26.507812 -3.496094 C 26.507812 -7.28125 20.679688 -3.933594 20.246094 -8.15625 C 21.699219 -13.109375 21.992188 -28.984375 24.976562 -39.542969 L 27.308594 -39.613281 C 31.675781 -38.667969 34.589844 -36.921875 34.664062 -35.171875 C 34.734375 -33.570312 35.753906 -32.914062 36.921875 -32.914062 C 38.523438 -32.914062 40.417969 -34.152344 40.34375 -35.972656 C 40.050781 -40.199219 39.90625 -40.78125 39.398438 -44.640625 C 39.324219 -46.316406 37.503906 -46.824219 36.703125 -46.605469 C 33.351562 -45.804688 30.074219 -45.585938 26.726562 -45.511719 C 24.394531 -45.804688 21.773438 -45.949219 19.152344 -45.949219 C 17.914062 -45.949219 16.75 -45.949219 15.582031 -45.878906 C 12.234375 -46.023438 8.375 -45.511719 6.191406 -45.441406 C 5.824219 -45.878906 5.316406 -46.097656 4.804688 -46.097656 C 3.277344 -46.097656 1.457031 -44.566406 1.457031 -42.746094 L 1.457031 -35.464844 C 1.457031 -33.789062 2.914062 -32.988281 4.441406 -32.988281 C 6.191406 -32.988281 8.011719 -34.007812 8.082031 -36.121094 C 8.8125 -38.230469 9.902344 -39.324219 11.652344 -39.6875 C 16.167969 -39.542969 17.332031 -39.398438 17.332031 -38.960938 C 17.332031 -38.59375 16.457031 -38.085938 16.238281 -37.210938 C 14.636719 -30.441406 13.761719 -29.347656 13.542969 -22.429688 C 11.722656 -17.1875 10.195312 -11.941406 9.539062 -6.480469 L 9.539062 -5.972656 L 9.613281 -5.898438 L 8.082031 -5.898438 C 6.261719 -5.171875 5.097656 -3.933594 5.097656 -2.332031 C 5.097656 -2.113281 5.097656 -1.894531 5.171875 -1.675781 C 5.097656 -0.21875 5.972656 0.875 7.28125 0.800781 C 10.632812 0.65625 14.054688 1.238281 17.476562 1.238281 Z M 17.476562 1.238281 "/></g></g></g><g fill="#ff60b0" fill-opacity="0.4"><g transform="translate(573.480611, 99.664915)"><g><path d="M 17.476562 1.238281 C 19.953125 1.238281 22.5 0.875 24.832031 -0.21875 L 25.558594 -0.582031 L 26.507812 -3.496094 C 26.507812 -7.28125 20.679688 -3.933594 20.246094 -8.15625 C 21.699219 -13.109375 21.992188 -28.984375 24.976562 -39.542969 L 27.308594 -39.613281 C 31.675781 -38.667969 34.589844 -36.921875 34.664062 -35.171875 C 34.734375 -33.570312 35.753906 -32.914062 36.921875 -32.914062 C 38.523438 -32.914062 40.417969 -34.152344 40.34375 -35.972656 C 40.050781 -40.199219 39.90625 -40.78125 39.398438 -44.640625 C 39.324219 -46.316406 37.503906 -46.824219 36.703125 -46.605469 C 33.351562 -45.804688 30.074219 -45.585938 26.726562 -45.511719 C 24.394531 -45.804688 21.773438 -45.949219 19.152344 -45.949219 C 17.914062 -45.949219 16.75 -45.949219 15.582031 -45.878906 C 12.234375 -46.023438 8.375 -45.511719 6.191406 -45.441406 C 5.824219 -45.878906 5.316406 -46.097656 4.804688 -46.097656 C 3.277344 -46.097656 1.457031 -44.566406 1.457031 -42.746094 L 1.457031 -35.464844 C 1.457031 -33.789062 2.914062 -32.988281 4.441406 -32.988281 C 6.191406 -32.988281 8.011719 -34.007812 8.082031 -36.121094 C 8.8125 -38.230469 9.902344 -39.324219 11.652344 -39.6875 C 16.167969 -39.542969 17.332031 -39.398438 17.332031 -38.960938 C 17.332031 -38.59375 16.457031 -38.085938 16.238281 -37.210938 C 14.636719 -30.441406 13.761719 -29.347656 13.542969 -22.429688 C 11.722656 -17.1875 10.195312 -11.941406 9.539062 -6.480469 L 9.539062 -5.972656 L 9.613281 -5.898438 L 8.082031 -5.898438 C 6.261719 -5.171875 5.097656 -3.933594 5.097656 -2.332031 C 5.097656 -2.113281 5.097656 -1.894531 5.171875 -1.675781 C 5.097656 -0.21875 5.972656 0.875 7.28125 0.800781 C 10.632812 0.65625 14.054688 1.238281 17.476562 1.238281 Z M 17.476562 1.238281 "/></g></g></g><g fill="#ff60b0" fill-opacity="0.4"><g transform="translate(610.90978, 99.664915)"><g><path d="M 23.230469 0.945312 C 33.351562 0.945312 37.867188 -2.984375 40.199219 -10.921875 C 40.269531 -11.140625 40.269531 -11.359375 40.269531 -11.652344 C 40.269531 -13.109375 39.03125 -14.128906 37.648438 -14.128906 C 36.992188 -14.128906 36.265625 -13.980469 35.683594 -13.472656 C 31.894531 -10.050781 28.765625 -6.84375 24.03125 -5.753906 C 21.410156 -5.171875 18.640625 -5.097656 15.875 -5.023438 C 17.839844 -8.300781 17.621094 -12.523438 19.226562 -18.058594 C 19.660156 -19.152344 21.410156 -19.660156 23.085938 -19.660156 C 24.90625 -19.660156 26.726562 -19.007812 26.871094 -17.914062 L 26.726562 -16.675781 C 26.578125 -15.074219 27.597656 -14.417969 28.765625 -14.417969 C 30.292969 -14.417969 32.042969 -15.4375 32.332031 -16.96875 L 32.625 -18.933594 C 33.132812 -21.992188 34.515625 -24.832031 35.683594 -27.816406 C 35.753906 -28.109375 35.828125 -28.402344 35.828125 -28.617188 C 35.828125 -30.074219 34.589844 -30.730469 33.207031 -30.730469 C 32.332031 -30.730469 31.386719 -30.441406 30.730469 -29.929688 C 28.472656 -27.308594 27.527344 -26.214844 24.25 -25.777344 C 23.230469 -25.632812 22.429688 -25.558594 21.773438 -25.558594 C 21.117188 -25.558594 20.609375 -25.632812 20.316406 -25.851562 C 22.210938 -32.550781 22.5 -35.320312 23.957031 -38.59375 C 27.671875 -38.449219 31.460938 -38.886719 35.535156 -38.886719 C 35.902344 -38.886719 36.191406 -38.960938 36.484375 -39.105469 C 36.484375 -37.722656 36.484375 -36.339844 36.703125 -34.882812 C 36.847656 -33.351562 37.648438 -32.769531 38.59375 -32.769531 C 40.269531 -32.769531 42.308594 -34.515625 42.308594 -36.484375 C 42.308594 -37.285156 42.164062 -37.941406 42.164062 -38.667969 C 42.164062 -40.199219 42.382812 -41.726562 42.382812 -43.257812 C 42.382812 -45.148438 40.78125 -45.730469 39.613281 -45.660156 C 38.378906 -45.511719 37.140625 -45.511719 35.902344 -45.511719 C 34.445312 -45.511719 32.914062 -45.511719 31.386719 -45.585938 L 18.425781 -44.859375 C 16.019531 -45.078125 13.617188 -45.441406 11.214844 -45.367188 C 9.539062 -45.296875 7.5 -43.183594 7.5 -41.507812 C 7.5 -40.632812 8.011719 -39.90625 9.394531 -39.613281 C 10.851562 -39.179688 11.941406 -38.886719 13.109375 -38.8125 C 14.054688 -37.210938 14.347656 -36.191406 14.347656 -34.664062 C 14.347656 -33.425781 14.128906 -31.824219 13.761719 -29.273438 C 11.578125 -22.136719 5.753906 -14.636719 5.753906 -5.753906 L 3.785156 -4.734375 C 2.476562 -4.222656 1.675781 -2.765625 1.675781 -1.457031 C 1.675781 -0.144531 2.402344 0.945312 4.152344 0.875 C 9.25 0.4375 14.492188 0.726562 19.660156 0.4375 C 19.878906 0.726562 20.316406 0.875 20.753906 0.875 C 21.628906 0.945312 22.429688 0.945312 23.230469 0.945312 Z M 23.230469 0.945312 "/></g></g></g><g fill="#ff60b0" fill-opacity="0.4"><g transform="translate(654.747064, 99.664915)"><g><path d="M 4.152344 1.675781 C 7.574219 1.164062 10.851562 0.875 14.054688 0.875 C 15.292969 0.875 16.53125 0.945312 17.769531 1.019531 L 20.171875 1.09375 C 20.464844 1.164062 20.753906 1.164062 20.972656 1.164062 C 22.867188 1.164062 23.8125 -0.65625 23.8125 -2.332031 C 23.8125 -3.640625 23.230469 -4.804688 22.066406 -4.804688 C 21.917969 -4.804688 21.699219 -4.804688 21.484375 -4.734375 C 19.953125 -4.371094 18.933594 -4.078125 18.277344 -4.078125 C 17.332031 -4.078125 17.113281 -4.515625 17.113281 -5.605469 C 17.113281 -6.625 17.332031 -8.230469 17.40625 -10.558594 L 18.351562 -14.78125 L 19.589844 -19.296875 C 24.394531 -16.3125 25.558594 -12.015625 27.890625 -6.117188 C 29.785156 -0.945312 32.988281 1.601562 37.648438 1.601562 C 38.449219 1.601562 39.25 1.527344 40.125 1.382812 C 42.527344 1.164062 44.710938 0.21875 45.585938 -3.132812 C 45.660156 -3.351562 45.660156 -3.566406 45.660156 -3.785156 C 45.660156 -4.878906 45.003906 -6.261719 43.328125 -6.261719 C 37.503906 -6.261719 35.390625 -13.761719 32.113281 -19.808594 C 38.59375 -22.210938 44.421875 -28.617188 44.421875 -35.027344 C 44.421875 -35.464844 44.421875 -35.972656 44.347656 -36.410156 C 43.257812 -44.785156 34.300781 -46.316406 25.777344 -46.316406 C 21.554688 -46.316406 17.476562 -45.949219 14.492188 -45.804688 L 11.433594 -46.824219 C 11.214844 -46.898438 10.996094 -46.96875 10.851562 -46.96875 C 9.320312 -46.96875 7.71875 -45.078125 7.71875 -43.328125 C 7.71875 -42.527344 8.082031 -41.800781 8.957031 -41.21875 L 11.503906 -39.90625 C 13.835938 -38.011719 15 -35.101562 15 -30.949219 C 15 -29.929688 14.929688 -28.765625 14.78125 -27.527344 C 14.636719 -27.234375 12.378906 -19.445312 12.015625 -17.257812 C 10.195312 -12.378906 8.082031 -8.230469 5.824219 -4.222656 L 4.371094 -4.078125 C 2.402344 -3.859375 1.382812 -2.257812 1.382812 -0.800781 C 1.382812 0.65625 2.332031 1.894531 4.152344 1.675781 Z M 27.527344 -25.777344 C 26.144531 -26.652344 24.832031 -27.089844 23.230469 -27.089844 C 22.574219 -27.089844 21.847656 -27.015625 21.117188 -26.871094 C 21.992188 -30.875 23.375 -35.320312 23.085938 -38.8125 C 26.144531 -39.46875 28.328125 -39.90625 29.929688 -39.90625 C 31.894531 -39.90625 33.132812 -39.25 34.226562 -37.285156 C 34.882812 -36.628906 35.246094 -35.753906 35.246094 -34.882812 C 35.246094 -33.28125 34.226562 -31.460938 32.113281 -29.492188 L 27.964844 -25.996094 Z M 27.527344 -25.777344 "/></g></g></g><g fill="#ff60b0" fill-opacity="0.4"><g transform="translate(701.861249, 99.664915)"><g><path d="M 17.769531 1.3125 C 23.011719 1.3125 27.527344 -2.695312 29.636719 -8.15625 L 30.074219 -9.539062 C 31.386719 -11.652344 31.894531 -13.835938 31.894531 -16.019531 C 31.894531 -21.117188 28.910156 -26.144531 25.125 -29.636719 C 21.484375 -33.0625 18.351562 -35.390625 17.039062 -39.761719 C 16.894531 -40.34375 16.75 -40.925781 16.75 -41.4375 C 16.75 -43.984375 19.007812 -45.222656 21.917969 -45.222656 C 27.234375 -45.222656 27.671875 -41.871094 27.890625 -37.429688 C 27.964844 -35.828125 28.984375 -35.171875 30.148438 -35.171875 C 31.675781 -35.171875 33.570312 -36.410156 33.644531 -38.304688 C 33.863281 -41.652344 33.714844 -45.003906 34.734375 -48.28125 C 34.808594 -48.570312 34.882812 -48.863281 34.882812 -49.082031 C 34.882812 -50.539062 33.714844 -51.265625 32.40625 -51.265625 C 31.242188 -51.265625 29.855469 -50.609375 29.347656 -49.082031 C 27.234375 -50.464844 24.757812 -51.121094 21.484375 -51.195312 C 19.734375 -51.195312 17.550781 -50.609375 15.65625 -49.664062 L 13.910156 -49.226562 L 13.761719 -49.226562 L 13.542969 -49.082031 C 9.757812 -47.117188 7.792969 -43.839844 7.792969 -39.832031 C 7.792969 -38.230469 8.082031 -36.554688 8.738281 -34.734375 C 9.46875 -31.386719 11.070312 -28.328125 13.398438 -25.777344 L 14.710938 -24.46875 L 16.675781 -22.355469 C 18.859375 -20.097656 21.410156 -18.351562 22.429688 -16.019531 C 22.648438 -15.582031 22.71875 -15.074219 22.71875 -14.636719 C 22.71875 -10.851562 17.113281 -6.992188 13.617188 -6.410156 C 10.558594 -9.03125 7.5 -13.179688 7.71875 -17.476562 C 7.792969 -19.078125 6.699219 -19.734375 5.460938 -19.734375 C 4.003906 -19.734375 2.332031 -18.789062 2.113281 -17.1875 C 1.746094 -15.4375 1.527344 -13.617188 1.527344 -11.722656 C 1.527344 -7.28125 2.914062 -2.914062 7.429688 -0.726562 L 7.574219 -0.363281 C 9.394531 0.292969 11.796875 0.800781 14.273438 0.726562 C 15.4375 1.164062 16.675781 1.3125 17.769531 1.3125 Z M 17.769531 1.3125 "/></g></g></g><g fill="#000000" fill-opacity="1"><g transform="translate(15.014063, 96.446397)"><g><path d="M 4.222656 1.3125 C 7.644531 0.726562 11.070312 0.507812 14.492188 0.4375 C 15.074219 0.507812 15.730469 0.582031 16.386719 0.582031 C 17.113281 0.582031 17.914062 0.507812 18.640625 0.363281 C 20.246094 0.21875 21.410156 -1.820312 21.410156 -3.421875 C 21.410156 -4.515625 20.828125 -5.460938 19.445312 -5.460938 C 16.75 -5.460938 16.457031 -5.390625 15.949219 -5.972656 C 17.914062 -9.539062 18.640625 -14.128906 19.226562 -17.476562 C 20.390625 -18.570312 21.628906 -19.226562 23.449219 -19.734375 C 25.851562 -19.734375 26.945312 -19.878906 27.746094 -19.371094 C 27.671875 -18.859375 27.671875 -18.277344 27.671875 -17.695312 C 27.671875 -17.113281 27.671875 -16.53125 27.746094 -16.019531 C 27.816406 -14.492188 28.546875 -13.980469 29.492188 -13.980469 C 31.023438 -13.980469 33.0625 -15.4375 33.28125 -16.820312 C 33.570312 -17.839844 33.789062 -18.859375 33.789062 -19.734375 C 33.789062 -20.390625 33.644531 -20.972656 33.496094 -21.484375 C 33.933594 -23.59375 34.882812 -25.34375 36.121094 -26.726562 C 36.339844 -27.234375 36.484375 -27.746094 36.484375 -28.183594 C 36.484375 -29.855469 35.027344 -31.242188 33.496094 -31.242188 C 32.769531 -31.242188 32.042969 -30.875 31.386719 -30.148438 C 30.003906 -27.234375 29.566406 -26.363281 28.691406 -25.851562 C 26.070312 -25.707031 24.757812 -25.488281 23.738281 -25.488281 C 22.71875 -25.488281 21.917969 -25.707031 20.246094 -26.363281 L 21.554688 -33.789062 C 22.355469 -36.628906 23.011719 -37.210938 26.289062 -37.285156 C 27.164062 -37.285156 28.253906 -37.359375 29.421875 -37.359375 C 31.675781 -37.359375 34.007812 -37.066406 34.664062 -35.320312 C 34.953125 -34.082031 35.828125 -33.570312 36.847656 -33.570312 C 38.523438 -33.570312 40.417969 -34.953125 40.34375 -36.703125 C 40.269531 -37.285156 40.269531 -37.792969 40.269531 -38.230469 C 40.269531 -39.613281 40.488281 -40.707031 40.851562 -41.871094 C 40.925781 -42.089844 40.925781 -42.308594 40.925781 -42.527344 C 40.925781 -44.128906 39.832031 -45.078125 38.160156 -44.929688 C 33.425781 -44.492188 28.765625 -43.621094 24.03125 -43.839844 C 20.246094 -43.984375 16.53125 -45.222656 12.742188 -45.222656 C 10.851562 -45.222656 9.539062 -43.183594 9.539062 -41.507812 C 9.539062 -40.417969 10.121094 -39.46875 11.503906 -39.398438 L 14.929688 -38.960938 C 13.910156 -28.253906 7.355469 -18.058594 6.84375 -6.917969 C 5.605469 -5.972656 4.222656 -5.097656 2.621094 -4.003906 C 1.964844 -3.566406 1.527344 -2.546875 1.527344 -1.527344 C 1.527344 0 2.332031 1.527344 4.222656 1.3125 Z M 4.222656 1.3125 "/></g></g></g><g fill="#000000" fill-opacity="1"><g transform="translate(55.938578, 96.446397)"><g><path d="M 19.371094 1.675781 C 20.097656 1.675781 20.898438 1.601562 21.628906 1.457031 C 31.75 0.65625 43.039062 -7.863281 45.949219 -17.039062 C 46.898438 -19.734375 47.40625 -22.9375 47.40625 -26.289062 C 47.40625 -37.210938 42.019531 -49.445312 29.492188 -48.570312 C 28.109375 -49.007812 26.578125 -49.226562 25.050781 -49.226562 C 23.519531 -49.226562 21.992188 -49.007812 20.316406 -48.5 C 11.214844 -46.097656 5.023438 -36.265625 2.984375 -28.328125 L 1.820312 -21.992188 C 1.601562 -20.753906 1.457031 -19.445312 1.457031 -18.207031 C 1.457031 -15.4375 2.039062 -12.742188 3.421875 -10.269531 C 7.574219 -3.058594 9.902344 -0.65625 15.148438 0.726562 C 16.53125 1.382812 17.914062 1.675781 19.371094 1.675781 Z M 22.285156 -4.953125 C 18.351562 -4.804688 16.601562 -5.605469 14.054688 -8.882812 C 11.796875 -11.652344 10.777344 -15.148438 10.777344 -18.789062 C 10.777344 -23.8125 12.742188 -29.203125 15.800781 -33.207031 C 19.152344 -37.359375 21.117188 -38.960938 24.105469 -40.78125 C 25.632812 -41.945312 25.851562 -42.238281 27.308594 -42.238281 C 27.964844 -42.238281 28.984375 -42.164062 30.511719 -42.089844 C 35.171875 -38.886719 37.867188 -31.605469 37.867188 -25.195312 C 37.867188 -23.667969 37.722656 -22.136719 37.359375 -20.753906 C 35.753906 -14.273438 28.617188 -6.191406 22.285156 -4.953125 Z M 22.285156 -4.953125 "/></g></g></g><g fill="#000000" fill-opacity="1"><g transform="translate(104.800407, 96.446397)"><g><path d="M 4.152344 1.675781 C 7.574219 1.164062 10.851562 0.875 14.054688 0.875 C 15.292969 0.875 16.53125 0.945312 17.769531 1.019531 L 20.171875 1.09375 C 20.464844 1.164062 20.753906 1.164062 20.972656 1.164062 C 22.867188 1.164062 23.8125 -0.65625 23.8125 -2.332031 C 23.8125 -3.640625 23.230469 -4.804688 22.066406 -4.804688 C 21.917969 -4.804688 21.699219 -4.804688 21.484375 -4.734375 C 19.953125 -4.371094 18.933594 -4.078125 18.277344 -4.078125 C 17.332031 -4.078125 17.113281 -4.515625 17.113281 -5.605469 C 17.113281 -6.625 17.332031 -8.230469 17.40625 -10.558594 L 18.351562 -14.78125 L 19.589844 -19.296875 C 24.394531 -16.3125 25.558594 -12.015625 27.890625 -6.117188 C 29.785156 -0.945312 32.988281 1.601562 37.648438 1.601562 C 38.449219 1.601562 39.25 1.527344 40.125 1.382812 C 42.527344 1.164062 44.710938 0.21875 45.585938 -3.132812 C 45.660156 -3.351562 45.660156 -3.566406 45.660156 -3.785156 C 45.660156 -4.878906 45.003906 -6.261719 43.328125 -6.261719 C 37.503906 -6.261719 35.390625 -13.761719 32.113281 -19.808594 C 38.59375 -22.210938 44.421875 -28.617188 44.421875 -35.027344 C 44.421875 -35.464844 44.421875 -35.972656 44.347656 -36.410156 C 43.257812 -44.785156 34.300781 -46.316406 25.777344 -46.316406 C 21.554688 -46.316406 17.476562 -45.949219 14.492188 -45.804688 L 11.433594 -46.824219 C 11.214844 -46.898438 10.996094 -46.96875 10.851562 -46.96875 C 9.320312 -46.96875 7.71875 -45.078125 7.71875 -43.328125 C 7.71875 -42.527344 8.082031 -41.800781 8.957031 -41.21875 L 11.503906 -39.90625 C 13.835938 -38.011719 15 -35.101562 15 -30.949219 C 15 -29.929688 14.929688 -28.765625 14.78125 -27.527344 C 14.636719 -27.234375 12.378906 -19.445312 12.015625 -17.257812 C 10.195312 -12.378906 8.082031 -8.230469 5.824219 -4.222656 L 4.371094 -4.078125 C 2.402344 -3.859375 1.382812 -2.257812 1.382812 -0.800781 C 1.382812 0.65625 2.332031 1.894531 4.152344 1.675781 Z M 27.527344 -25.777344 C 26.144531 -26.652344 24.832031 -27.089844 23.230469 -27.089844 C 22.574219 -27.089844 21.847656 -27.015625 21.117188 -26.871094 C 21.992188 -30.875 23.375 -35.320312 23.085938 -38.8125 C 26.144531 -39.46875 28.328125 -39.90625 29.929688 -39.90625 C 31.894531 -39.90625 33.132812 -39.25 34.226562 -37.285156 C 34.882812 -36.628906 35.246094 -35.753906 35.246094 -34.882812 C 35.246094 -33.28125 34.226562 -31.460938 32.113281 -29.492188 L 27.964844 -25.996094 Z M 27.527344 -25.777344 "/></g></g></g><g fill="#000000" fill-opacity="1"><g transform="translate(151.914564, 96.446397)"><g/></g></g><g fill="#000000" fill-opacity="1"><g transform="translate(175.216776, 96.446397)"><g><path d="M 4.078125 3.277344 L 7.863281 2.476562 C 10.777344 2.546875 13.617188 2.765625 16.53125 2.984375 C 17.988281 3.132812 20.027344 1.019531 20.027344 -0.945312 C 20.027344 -1.527344 19.878906 -2.039062 19.515625 -2.476562 C 18.058594 -3.785156 16.019531 -4.660156 15.800781 -6.335938 C 18.859375 -9.46875 22.136719 -15.875 23.230469 -15.875 C 23.375 -15.875 23.449219 -15.730469 23.519531 -15.367188 C 24.90625 -9.683594 25.34375 -8.15625 26.070312 -6.335938 L 25.125 -4.953125 L 24.613281 -4.953125 L 24.613281 -4.804688 C 23.304688 -4.222656 22.066406 -2.476562 22.066406 -1.019531 C 22.066406 -0.0742188 22.71875 0.800781 24.394531 0.875 C 25.558594 1.019531 26.726562 0.800781 27.816406 0.292969 L 28.835938 0.144531 C 30.875 1.09375 33.644531 1.382812 36.339844 1.382812 C 38.160156 1.382812 39.90625 1.238281 41.21875 1.164062 C 42.820312 1.09375 43.910156 -0.726562 43.910156 -2.257812 C 43.910156 -3.421875 43.328125 -4.515625 41.945312 -4.660156 C 40.632812 -4.878906 39.179688 -4.953125 37.722656 -5.242188 L 37.210938 -6.992188 C 35.683594 -11.871094 33.425781 -19.953125 32.1875 -22.574219 C 33.714844 -26.363281 41.800781 -39.25 48.5 -39.25 C 50.394531 -39.25 51.777344 -41.4375 51.777344 -43.109375 C 51.777344 -44.203125 51.195312 -45.078125 49.808594 -45.078125 L 36.773438 -45.078125 C 34.953125 -45.078125 33.570312 -43.109375 33.570312 -41.4375 C 33.570312 -40.417969 34.152344 -39.46875 35.535156 -39.25 C 36.265625 -38.960938 33.425781 -34.226562 29.203125 -28.617188 C 27.964844 -32.84375 26.796875 -38.449219 27.089844 -38.304688 C 28.910156 -38.304688 30.367188 -40.34375 30.367188 -42.019531 C 30.367188 -43.109375 29.785156 -43.984375 28.402344 -44.203125 C 28.035156 -44.277344 27.671875 -44.277344 27.308594 -44.277344 C 26.726562 -44.277344 26.289062 -44.203125 25.851562 -44.128906 C 24.539062 -44.128906 23.304688 -44.058594 21.992188 -44.058594 C 19.152344 -44.058594 16.3125 -44.203125 13.472656 -44.929688 C 11.433594 -45.367188 9.320312 -43.039062 9.320312 -41.21875 C 9.320312 -40.34375 9.902344 -39.542969 11.214844 -39.324219 L 12.960938 -38.960938 L 13.835938 -38.59375 C 16.457031 -38.304688 18.714844 -28.402344 19.589844 -26.433594 L 21.484375 -21.847656 C 16.457031 -16.3125 12.523438 -12.523438 6.917969 -5.242188 C 5.753906 -4.371094 5.023438 -3.714844 3.058594 -2.332031 C 2.183594 -1.894531 1.527344 -0.363281 1.527344 0.945312 C 1.527344 2.332031 2.257812 3.566406 4.078125 3.277344 Z M 4.078125 3.277344 "/></g></g></g><g fill="#000000" fill-opacity="1"><g transform="translate(225.025257, 96.446397)"><g/></g></g><g fill="#000000" fill-opacity="1"><g transform="translate(248.327469, 96.446397)"><g><path d="M 19.953125 1.019531 C 21.554688 1.019531 23.085938 0.945312 24.613281 0.65625 C 25.488281 0.726562 26.214844 0.800781 26.945312 0.800781 C 34.082031 0.800781 35.828125 -4.222656 39.03125 -11.214844 C 39.25 -11.722656 39.324219 -12.160156 39.324219 -12.597656 C 39.324219 -13.980469 38.230469 -14.855469 36.921875 -14.855469 C 35.902344 -14.855469 34.664062 -14.199219 34.007812 -12.671875 L 29.054688 -8.300781 C 25.777344 -4.804688 21.335938 -6.191406 15.148438 -5.535156 C 17.839844 -10.414062 18.351562 -16.386719 19.296875 -21.410156 L 20.246094 -27.816406 C 21.265625 -30.441406 22.210938 -33.207031 22.429688 -35.828125 C 23.667969 -38.8125 24.394531 -39.761719 27.597656 -40.269531 C 29.054688 -40.632812 29.785156 -42.019531 29.785156 -43.328125 C 29.785156 -44.710938 28.984375 -46.023438 27.234375 -45.878906 L 24.324219 -45.148438 C 23.375 -45.003906 22.355469 -44.929688 21.335938 -44.929688 C 18.640625 -44.929688 15.800781 -45.367188 13.109375 -45.367188 C 12.523438 -45.367188 11.871094 -45.367188 11.289062 -45.296875 C 9.613281 -45.148438 8.519531 -43.328125 8.519531 -41.726562 C 8.519531 -40.488281 9.175781 -39.398438 10.777344 -39.398438 C 11.070312 -39.398438 11.433594 -39.46875 11.796875 -39.542969 C 12.597656 -38.304688 12.960938 -36.703125 12.960938 -34.882812 C 12.960938 -29.566406 10.050781 -22.574219 9.03125 -18.570312 C 8.375 -15.875 7.28125 -11.722656 7.28125 -8.300781 L 3.058594 -5.316406 C 2.113281 -4.878906 1.527344 -3.421875 1.527344 -1.964844 C 1.527344 -0.363281 2.332031 1.238281 4.152344 0.945312 C 5.898438 0.65625 7.574219 0.507812 9.25 0.507812 C 12.816406 0.507812 16.386719 1.019531 19.953125 1.019531 Z M 19.953125 1.019531 "/></g></g></g><g fill="#000000" fill-opacity="1"><g transform="translate(287.649968, 96.446397)"><g><path d="M 19.371094 1.675781 C 20.097656 1.675781 20.898438 1.601562 21.628906 1.457031 C 31.75 0.65625 43.039062 -7.863281 45.949219 -17.039062 C 46.898438 -19.734375 47.40625 -22.9375 47.40625 -26.289062 C 47.40625 -37.210938 42.019531 -49.445312 29.492188 -48.570312 C 28.109375 -49.007812 26.578125 -49.226562 25.050781 -49.226562 C 23.519531 -49.226562 21.992188 -49.007812 20.316406 -48.5 C 11.214844 -46.097656 5.023438 -36.265625 2.984375 -28.328125 L 1.820312 -21.992188 C 1.601562 -20.753906 1.457031 -19.445312 1.457031 -18.207031 C 1.457031 -15.4375 2.039062 -12.742188 3.421875 -10.269531 C 7.574219 -3.058594 9.902344 -0.65625 15.148438 0.726562 C 16.53125 1.382812 17.914062 1.675781 19.371094 1.675781 Z M 22.285156 -4.953125 C 18.351562 -4.804688 16.601562 -5.605469 14.054688 -8.882812 C 11.796875 -11.652344 10.777344 -15.148438 10.777344 -18.789062 C 10.777344 -23.8125 12.742188 -29.203125 15.800781 -33.207031 C 19.152344 -37.359375 21.117188 -38.960938 24.105469 -40.78125 C 25.632812 -41.945312 25.851562 -42.238281 27.308594 -42.238281 C 27.964844 -42.238281 28.984375 -42.164062 30.511719 -42.089844 C 35.171875 -38.886719 37.867188 -31.605469 37.867188 -25.195312 C 37.867188 -23.667969 37.722656 -22.136719 37.359375 -20.753906 C 35.753906 -14.273438 28.617188 -6.191406 22.285156 -4.953125 Z M 22.285156 -4.953125 "/></g></g></g><g fill="#000000" fill-opacity="1"><g transform="translate(336.511798, 96.446397)"><g><path d="M 17.039062 0.945312 C 18.351562 0.945312 19.734375 0.21875 20.097656 -1.164062 L 22.285156 -5.171875 C 32.113281 -26.363281 38.378906 -33.207031 39.980469 -37.722656 L 45.878906 -43.402344 C 46.460938 -44.277344 46.75 -45.296875 46.75 -46.167969 C 46.75 -47.550781 46.097656 -48.644531 44.640625 -48.644531 C 44.277344 -48.644531 43.910156 -48.644531 43.546875 -48.5 C 42.089844 -47.917969 40.707031 -47.699219 39.324219 -47.699219 C 37.792969 -47.699219 36.265625 -47.988281 34.664062 -48.207031 C 32.695312 -48.5 31.167969 -46.53125 31.167969 -44.710938 C 31.167969 -43.984375 31.386719 -43.257812 31.894531 -42.746094 C 34.082031 -40.925781 34.734375 -40.269531 34.589844 -38.8125 L 33.570312 -36.484375 C 29.636719 -30.804688 27.382812 -26.507812 21.699219 -15.875 L 19.371094 -23.59375 L 16.75 -31.09375 C 16.53125 -32.550781 16.386719 -33.933594 16.386719 -35.246094 C 16.386719 -38.523438 17.257812 -41 19.515625 -41.289062 C 21.265625 -41.363281 22.574219 -43.472656 22.574219 -45.148438 C 22.574219 -46.316406 21.917969 -47.261719 20.464844 -47.1875 C 16.457031 -46.96875 12.523438 -46.898438 8.519531 -46.898438 L 4.804688 -46.898438 C 2.984375 -46.898438 1.675781 -44.859375 1.675781 -43.183594 C 1.675781 -42.019531 2.332031 -41 3.785156 -41 L 4.585938 -41 C 6.625 -41.871094 7.210938 -32.84375 8.449219 -29.128906 C 10.921875 -19.878906 14.347656 -10.703125 14.710938 -1.238281 C 14.78125 0.292969 15.875 0.945312 17.039062 0.945312 Z M 12.089844 -40.78125 L 11.941406 -41 L 12.089844 -41 Z M 12.089844 -40.78125 "/></g></g></g><g fill="#000000" fill-opacity="1"><g transform="translate(382.533673, 96.446397)"><g><path d="M 23.230469 0.945312 C 33.351562 0.945312 37.867188 -2.984375 40.199219 -10.921875 C 40.269531 -11.140625 40.269531 -11.359375 40.269531 -11.652344 C 40.269531 -13.109375 39.03125 -14.128906 37.648438 -14.128906 C 36.992188 -14.128906 36.265625 -13.980469 35.683594 -13.472656 C 31.894531 -10.050781 28.765625 -6.84375 24.03125 -5.753906 C 21.410156 -5.171875 18.640625 -5.097656 15.875 -5.023438 C 17.839844 -8.300781 17.621094 -12.523438 19.226562 -18.058594 C 19.660156 -19.152344 21.410156 -19.660156 23.085938 -19.660156 C 24.90625 -19.660156 26.726562 -19.007812 26.871094 -17.914062 L 26.726562 -16.675781 C 26.578125 -15.074219 27.597656 -14.417969 28.765625 -14.417969 C 30.292969 -14.417969 32.042969 -15.4375 32.332031 -16.96875 L 32.625 -18.933594 C 33.132812 -21.992188 34.515625 -24.832031 35.683594 -27.816406 C 35.753906 -28.109375 35.828125 -28.402344 35.828125 -28.617188 C 35.828125 -30.074219 34.589844 -30.730469 33.207031 -30.730469 C 32.332031 -30.730469 31.386719 -30.441406 30.730469 -29.929688 C 28.472656 -27.308594 27.527344 -26.214844 24.25 -25.777344 C 23.230469 -25.632812 22.429688 -25.558594 21.773438 -25.558594 C 21.117188 -25.558594 20.609375 -25.632812 20.316406 -25.851562 C 22.210938 -32.550781 22.5 -35.320312 23.957031 -38.59375 C 27.671875 -38.449219 31.460938 -38.886719 35.535156 -38.886719 C 35.902344 -38.886719 36.191406 -38.960938 36.484375 -39.105469 C 36.484375 -37.722656 36.484375 -36.339844 36.703125 -34.882812 C 36.847656 -33.351562 37.648438 -32.769531 38.59375 -32.769531 C 40.269531 -32.769531 42.308594 -34.515625 42.308594 -36.484375 C 42.308594 -37.285156 42.164062 -37.941406 42.164062 -38.667969 C 42.164062 -40.199219 42.382812 -41.726562 42.382812 -43.257812 C 42.382812 -45.148438 40.78125 -45.730469 39.613281 -45.660156 C 38.378906 -45.511719 37.140625 -45.511719 35.902344 -45.511719 C 34.445312 -45.511719 32.914062 -45.511719 31.386719 -45.585938 L 18.425781 -44.859375 C 16.019531 -45.078125 13.617188 -45.441406 11.214844 -45.367188 C 9.539062 -45.296875 7.5 -43.183594 7.5 -41.507812 C 7.5 -40.632812 8.011719 -39.90625 9.394531 -39.613281 C 10.851562 -39.179688 11.941406 -38.886719 13.109375 -38.8125 C 14.054688 -37.210938 14.347656 -36.191406 14.347656 -34.664062 C 14.347656 -33.425781 14.128906 -31.824219 13.761719 -29.273438 C 11.578125 -22.136719 5.753906 -14.636719 5.753906 -5.753906 L 3.785156 -4.734375 C 2.476562 -4.222656 1.675781 -2.765625 1.675781 -1.457031 C 1.675781 -0.144531 2.402344 0.945312 4.152344 0.875 C 9.25 0.4375 14.492188 0.726562 19.660156 0.4375 C 19.878906 0.726562 20.316406 0.875 20.753906 0.875 C 21.628906 0.945312 22.429688 0.945312 23.230469 0.945312 Z M 23.230469 0.945312 "/></g></g></g><g fill="#000000" fill-opacity="1"><g transform="translate(426.370957, 96.446397)"><g/></g></g><g fill="#000000" fill-opacity="1"><g transform="translate(449.673168, 96.446397)"><g><path d="M 19.953125 1.019531 C 21.554688 1.019531 23.085938 0.945312 24.613281 0.65625 C 25.488281 0.726562 26.214844 0.800781 26.945312 0.800781 C 34.082031 0.800781 35.828125 -4.222656 39.03125 -11.214844 C 39.25 -11.722656 39.324219 -12.160156 39.324219 -12.597656 C 39.324219 -13.980469 38.230469 -14.855469 36.921875 -14.855469 C 35.902344 -14.855469 34.664062 -14.199219 34.007812 -12.671875 L 29.054688 -8.300781 C 25.777344 -4.804688 21.335938 -6.191406 15.148438 -5.535156 C 17.839844 -10.414062 18.351562 -16.386719 19.296875 -21.410156 L 20.246094 -27.816406 C 21.265625 -30.441406 22.210938 -33.207031 22.429688 -35.828125 C 23.667969 -38.8125 24.394531 -39.761719 27.597656 -40.269531 C 29.054688 -40.632812 29.785156 -42.019531 29.785156 -43.328125 C 29.785156 -44.710938 28.984375 -46.023438 27.234375 -45.878906 L 24.324219 -45.148438 C 23.375 -45.003906 22.355469 -44.929688 21.335938 -44.929688 C 18.640625 -44.929688 15.800781 -45.367188 13.109375 -45.367188 C 12.523438 -45.367188 11.871094 -45.367188 11.289062 -45.296875 C 9.613281 -45.148438 8.519531 -43.328125 8.519531 -41.726562 C 8.519531 -40.488281 9.175781 -39.398438 10.777344 -39.398438 C 11.070312 -39.398438 11.433594 -39.46875 11.796875 -39.542969 C 12.597656 -38.304688 12.960938 -36.703125 12.960938 -34.882812 C 12.960938 -29.566406 10.050781 -22.574219 9.03125 -18.570312 C 8.375 -15.875 7.28125 -11.722656 7.28125 -8.300781 L 3.058594 -5.316406 C 2.113281 -4.878906 1.527344 -3.421875 1.527344 -1.964844 C 1.527344 -0.363281 2.332031 1.238281 4.152344 0.945312 C 5.898438 0.65625 7.574219 0.507812 9.25 0.507812 C 12.816406 0.507812 16.386719 1.019531 19.953125 1.019531 Z M 19.953125 1.019531 "/></g></g></g><g fill="#000000" fill-opacity="1"><g transform="translate(488.995641, 96.446397)"><g><path d="M 23.230469 0.945312 C 33.351562 0.945312 37.867188 -2.984375 40.199219 -10.921875 C 40.269531 -11.140625 40.269531 -11.359375 40.269531 -11.652344 C 40.269531 -13.109375 39.03125 -14.128906 37.648438 -14.128906 C 36.992188 -14.128906 36.265625 -13.980469 35.683594 -13.472656 C 31.894531 -10.050781 28.765625 -6.84375 24.03125 -5.753906 C 21.410156 -5.171875 18.640625 -5.097656 15.875 -5.023438 C 17.839844 -8.300781 17.621094 -12.523438 19.226562 -18.058594 C 19.660156 -19.152344 21.410156 -19.660156 23.085938 -19.660156 C 24.90625 -19.660156 26.726562 -19.007812 26.871094 -17.914062 L 26.726562 -16.675781 C 26.578125 -15.074219 27.597656 -14.417969 28.765625 -14.417969 C 30.292969 -14.417969 32.042969 -15.4375 32.332031 -16.96875 L 32.625 -18.933594 C 33.132812 -21.992188 34.515625 -24.832031 35.683594 -27.816406 C 35.753906 -28.109375 35.828125 -28.402344 35.828125 -28.617188 C 35.828125 -30.074219 34.589844 -30.730469 33.207031 -30.730469 C 32.332031 -30.730469 31.386719 -30.441406 30.730469 -29.929688 C 28.472656 -27.308594 27.527344 -26.214844 24.25 -25.777344 C 23.230469 -25.632812 22.429688 -25.558594 21.773438 -25.558594 C 21.117188 -25.558594 20.609375 -25.632812 20.316406 -25.851562 C 22.210938 -32.550781 22.5 -35.320312 23.957031 -38.59375 C 27.671875 -38.449219 31.460938 -38.886719 35.535156 -38.886719 C 35.902344 -38.886719 36.191406 -38.960938 36.484375 -39.105469 C 36.484375 -37.722656 36.484375 -36.339844 36.703125 -34.882812 C 36.847656 -33.351562 37.648438 -32.769531 38.59375 -32.769531 C 40.269531 -32.769531 42.308594 -34.515625 42.308594 -36.484375 C 42.308594 -37.285156 42.164062 -37.941406 42.164062 -38.667969 C 42.164062 -40.199219 42.382812 -41.726562 42.382812 -43.257812 C 42.382812 -45.148438 40.78125 -45.730469 39.613281 -45.660156 C 38.378906 -45.511719 37.140625 -45.511719 35.902344 -45.511719 C 34.445312 -45.511719 32.914062 -45.511719 31.386719 -45.585938 L 18.425781 -44.859375 C 16.019531 -45.078125 13.617188 -45.441406 11.214844 -45.367188 C 9.539062 -45.296875 7.5 -43.183594 7.5 -41.507812 C 7.5 -40.632812 8.011719 -39.90625 9.394531 -39.613281 C 10.851562 -39.179688 11.941406 -38.886719 13.109375 -38.8125 C 14.054688 -37.210938 14.347656 -36.191406 14.347656 -34.664062 C 14.347656 -33.425781 14.128906 -31.824219 13.761719 -29.273438 C 11.578125 -22.136719 5.753906 -14.636719 5.753906 -5.753906 L 3.785156 -4.734375 C 2.476562 -4.222656 1.675781 -2.765625 1.675781 -1.457031 C 1.675781 -0.144531 2.402344 0.945312 4.152344 0.875 C 9.25 0.4375 14.492188 0.726562 19.660156 0.4375 C 19.878906 0.726562 20.316406 0.875 20.753906 0.875 C 21.628906 0.945312 22.429688 0.945312 23.230469 0.945312 Z M 23.230469 0.945312 "/></g></g></g><g fill="#000000" fill-opacity="1"><g transform="translate(532.832925, 96.446397)"><g><path d="M 17.476562 1.238281 C 19.953125 1.238281 22.5 0.875 24.832031 -0.21875 L 25.558594 -0.582031 L 26.507812 -3.496094 C 26.507812 -7.28125 20.679688 -3.933594 20.246094 -8.15625 C 21.699219 -13.109375 21.992188 -28.984375 24.976562 -39.542969 L 27.308594 -39.613281 C 31.675781 -38.667969 34.589844 -36.921875 34.664062 -35.171875 C 34.734375 -33.570312 35.753906 -32.914062 36.921875 -32.914062 C 38.523438 -32.914062 40.417969 -34.152344 40.34375 -35.972656 C 40.050781 -40.199219 39.90625 -40.78125 39.398438 -44.640625 C 39.324219 -46.316406 37.503906 -46.824219 36.703125 -46.605469 C 33.351562 -45.804688 30.074219 -45.585938 26.726562 -45.511719 C 24.394531 -45.804688 21.773438 -45.949219 19.152344 -45.949219 C 17.914062 -45.949219 16.75 -45.949219 15.582031 -45.878906 C 12.234375 -46.023438 8.375 -45.511719 6.191406 -45.441406 C 5.824219 -45.878906 5.316406 -46.097656 4.804688 -46.097656 C 3.277344 -46.097656 1.457031 -44.566406 1.457031 -42.746094 L 1.457031 -35.464844 C 1.457031 -33.789062 2.914062 -32.988281 4.441406 -32.988281 C 6.191406 -32.988281 8.011719 -34.007812 8.082031 -36.121094 C 8.8125 -38.230469 9.902344 -39.324219 11.652344 -39.6875 C 16.167969 -39.542969 17.332031 -39.398438 17.332031 -38.960938 C 17.332031 -38.59375 16.457031 -38.085938 16.238281 -37.210938 C 14.636719 -30.441406 13.761719 -29.347656 13.542969 -22.429688 C 11.722656 -17.1875 10.195312 -11.941406 9.539062 -6.480469 L 9.539062 -5.972656 L 9.613281 -5.898438 L 8.082031 -5.898438 C 6.261719 -5.171875 5.097656 -3.933594 5.097656 -2.332031 C 5.097656 -2.113281 5.097656 -1.894531 5.171875 -1.675781 C 5.097656 -0.21875 5.972656 0.875 7.28125 0.800781 C 10.632812 0.65625 14.054688 1.238281 17.476562 1.238281 Z M 17.476562 1.238281 "/></g></g></g><g fill="#000000" fill-opacity="1"><g transform="translate(570.262095, 96.446397)"><g><path d="M 17.476562 1.238281 C 19.953125 1.238281 22.5 0.875 24.832031 -0.21875 L 25.558594 -0.582031 L 26.507812 -3.496094 C 26.507812 -7.28125 20.679688 -3.933594 20.246094 -8.15625 C 21.699219 -13.109375 21.992188 -28.984375 24.976562 -39.542969 L 27.308594 -39.613281 C 31.675781 -38.667969 34.589844 -36.921875 34.664062 -35.171875 C 34.734375 -33.570312 35.753906 -32.914062 36.921875 -32.914062 C 38.523438 -32.914062 40.417969 -34.152344 40.34375 -35.972656 C 40.050781 -40.199219 39.90625 -40.78125 39.398438 -44.640625 C 39.324219 -46.316406 37.503906 -46.824219 36.703125 -46.605469 C 33.351562 -45.804688 30.074219 -45.585938 26.726562 -45.511719 C 24.394531 -45.804688 21.773438 -45.949219 19.152344 -45.949219 C 17.914062 -45.949219 16.75 -45.949219 15.582031 -45.878906 C 12.234375 -46.023438 8.375 -45.511719 6.191406 -45.441406 C 5.824219 -45.878906 5.316406 -46.097656 4.804688 -46.097656 C 3.277344 -46.097656 1.457031 -44.566406 1.457031 -42.746094 L 1.457031 -35.464844 C 1.457031 -33.789062 2.914062 -32.988281 4.441406 -32.988281 C 6.191406 -32.988281 8.011719 -34.007812 8.082031 -36.121094 C 8.8125 -38.230469 9.902344 -39.324219 11.652344 -39.6875 C 16.167969 -39.542969 17.332031 -39.398438 17.332031 -38.960938 C 17.332031 -38.59375 16.457031 -38.085938 16.238281 -37.210938 C 14.636719 -30.441406 13.761719 -29.347656 13.542969 -22.429688 C 11.722656 -17.1875 10.195312 -11.941406 9.539062 -6.480469 L 9.539062 -5.972656 L 9.613281 -5.898438 L 8.082031 -5.898438 C 6.261719 -5.171875 5.097656 -3.933594 5.097656 -2.332031 C 5.097656 -2.113281 5.097656 -1.894531 5.171875 -1.675781 C 5.097656 -0.21875 5.972656 0.875 7.28125 0.800781 C 10.632812 0.65625 14.054688 1.238281 17.476562 1.238281 Z M 17.476562 1.238281 "/></g></g></g><g fill="#000000" fill-opacity="1"><g transform="translate(607.691264, 96.446397)"><g><path d="M 23.230469 0.945312 C 33.351562 0.945312 37.867188 -2.984375 40.199219 -10.921875 C 40.269531 -11.140625 40.269531 -11.359375 40.269531 -11.652344 C 40.269531 -13.109375 39.03125 -14.128906 37.648438 -14.128906 C 36.992188 -14.128906 36.265625 -13.980469 35.683594 -13.472656 C 31.894531 -10.050781 28.765625 -6.84375 24.03125 -5.753906 C 21.410156 -5.171875 18.640625 -5.097656 15.875 -5.023438 C 17.839844 -8.300781 17.621094 -12.523438 19.226562 -18.058594 C 19.660156 -19.152344 21.410156 -19.660156 23.085938 -19.660156 C 24.90625 -19.660156 26.726562 -19.007812 26.871094 -17.914062 L 26.726562 -16.675781 C 26.578125 -15.074219 27.597656 -14.417969 28.765625 -14.417969 C 30.292969 -14.417969 32.042969 -15.4375 32.332031 -16.96875 L 32.625 -18.933594 C 33.132812 -21.992188 34.515625 -24.832031 35.683594 -27.816406 C 35.753906 -28.109375 35.828125 -28.402344 35.828125 -28.617188 C 35.828125 -30.074219 34.589844 -30.730469 33.207031 -30.730469 C 32.332031 -30.730469 31.386719 -30.441406 30.730469 -29.929688 C 28.472656 -27.308594 27.527344 -26.214844 24.25 -25.777344 C 23.230469 -25.632812 22.429688 -25.558594 21.773438 -25.558594 C 21.117188 -25.558594 20.609375 -25.632812 20.316406 -25.851562 C 22.210938 -32.550781 22.5 -35.320312 23.957031 -38.59375 C 27.671875 -38.449219 31.460938 -38.886719 35.535156 -38.886719 C 35.902344 -38.886719 36.191406 -38.960938 36.484375 -39.105469 C 36.484375 -37.722656 36.484375 -36.339844 36.703125 -34.882812 C 36.847656 -33.351562 37.648438 -32.769531 38.59375 -32.769531 C 40.269531 -32.769531 42.308594 -34.515625 42.308594 -36.484375 C 42.308594 -37.285156 42.164062 -37.941406 42.164062 -38.667969 C 42.164062 -40.199219 42.382812 -41.726562 42.382812 -43.257812 C 42.382812 -45.148438 40.78125 -45.730469 39.613281 -45.660156 C 38.378906 -45.511719 37.140625 -45.511719 35.902344 -45.511719 C 34.445312 -45.511719 32.914062 -45.511719 31.386719 -45.585938 L 18.425781 -44.859375 C 16.019531 -45.078125 13.617188 -45.441406 11.214844 -45.367188 C 9.539062 -45.296875 7.5 -43.183594 7.5 -41.507812 C 7.5 -40.632812 8.011719 -39.90625 9.394531 -39.613281 C 10.851562 -39.179688 11.941406 -38.886719 13.109375 -38.8125 C 14.054688 -37.210938 14.347656 -36.191406 14.347656 -34.664062 C 14.347656 -33.425781 14.128906 -31.824219 13.761719 -29.273438 C 11.578125 -22.136719 5.753906 -14.636719 5.753906 -5.753906 L 3.785156 -4.734375 C 2.476562 -4.222656 1.675781 -2.765625 1.675781 -1.457031 C 1.675781 -0.144531 2.402344 0.945312 4.152344 0.875 C 9.25 0.4375 14.492188 0.726562 19.660156 0.4375 C 19.878906 0.726562 20.316406 0.875 20.753906 0.875 C 21.628906 0.945312 22.429688 0.945312 23.230469 0.945312 Z M 23.230469 0.945312 "/></g></g></g><g fill="#000000" fill-opacity="1"><g transform="translate(651.528548, 96.446397)"><g><path d="M 4.152344 1.675781 C 7.574219 1.164062 10.851562 0.875 14.054688 0.875 C 15.292969 0.875 16.53125 0.945312 17.769531 1.019531 L 20.171875 1.09375 C 20.464844 1.164062 20.753906 1.164062 20.972656 1.164062 C 22.867188 1.164062 23.8125 -0.65625 23.8125 -2.332031 C 23.8125 -3.640625 23.230469 -4.804688 22.066406 -4.804688 C 21.917969 -4.804688 21.699219 -4.804688 21.484375 -4.734375 C 19.953125 -4.371094 18.933594 -4.078125 18.277344 -4.078125 C 17.332031 -4.078125 17.113281 -4.515625 17.113281 -5.605469 C 17.113281 -6.625 17.332031 -8.230469 17.40625 -10.558594 L 18.351562 -14.78125 L 19.589844 -19.296875 C 24.394531 -16.3125 25.558594 -12.015625 27.890625 -6.117188 C 29.785156 -0.945312 32.988281 1.601562 37.648438 1.601562 C 38.449219 1.601562 39.25 1.527344 40.125 1.382812 C 42.527344 1.164062 44.710938 0.21875 45.585938 -3.132812 C 45.660156 -3.351562 45.660156 -3.566406 45.660156 -3.785156 C 45.660156 -4.878906 45.003906 -6.261719 43.328125 -6.261719 C 37.503906 -6.261719 35.390625 -13.761719 32.113281 -19.808594 C 38.59375 -22.210938 44.421875 -28.617188 44.421875 -35.027344 C 44.421875 -35.464844 44.421875 -35.972656 44.347656 -36.410156 C 43.257812 -44.785156 34.300781 -46.316406 25.777344 -46.316406 C 21.554688 -46.316406 17.476562 -45.949219 14.492188 -45.804688 L 11.433594 -46.824219 C 11.214844 -46.898438 10.996094 -46.96875 10.851562 -46.96875 C 9.320312 -46.96875 7.71875 -45.078125 7.71875 -43.328125 C 7.71875 -42.527344 8.082031 -41.800781 8.957031 -41.21875 L 11.503906 -39.90625 C 13.835938 -38.011719 15 -35.101562 15 -30.949219 C 15 -29.929688 14.929688 -28.765625 14.78125 -27.527344 C 14.636719 -27.234375 12.378906 -19.445312 12.015625 -17.257812 C 10.195312 -12.378906 8.082031 -8.230469 5.824219 -4.222656 L 4.371094 -4.078125 C 2.402344 -3.859375 1.382812 -2.257812 1.382812 -0.800781 C 1.382812 0.65625 2.332031 1.894531 4.152344 1.675781 Z M 27.527344 -25.777344 C 26.144531 -26.652344 24.832031 -27.089844 23.230469 -27.089844 C 22.574219 -27.089844 21.847656 -27.015625 21.117188 -26.871094 C 21.992188 -30.875 23.375 -35.320312 23.085938 -38.8125 C 26.144531 -39.46875 28.328125 -39.90625 29.929688 -39.90625 C 31.894531 -39.90625 33.132812 -39.25 34.226562 -37.285156 C 34.882812 -36.628906 35.246094 -35.753906 35.246094 -34.882812 C 35.246094 -33.28125 34.226562 -31.460938 32.113281 -29.492188 L 27.964844 -25.996094 Z M 27.527344 -25.777344 "/></g></g></g><g fill="#000000" fill-opacity="1"><g transform="translate(698.642733, 96.446397)"><g><path d="M 17.769531 1.3125 C 23.011719 1.3125 27.527344 -2.695312 29.636719 -8.15625 L 30.074219 -9.539062 C 31.386719 -11.652344 31.894531 -13.835938 31.894531 -16.019531 C 31.894531 -21.117188 28.910156 -26.144531 25.125 -29.636719 C 21.484375 -33.0625 18.351562 -35.390625 17.039062 -39.761719 C 16.894531 -40.34375 16.75 -40.925781 16.75 -41.4375 C 16.75 -43.984375 19.007812 -45.222656 21.917969 -45.222656 C 27.234375 -45.222656 27.671875 -41.871094 27.890625 -37.429688 C 27.964844 -35.828125 28.984375 -35.171875 30.148438 -35.171875 C 31.675781 -35.171875 33.570312 -36.410156 33.644531 -38.304688 C 33.863281 -41.652344 33.714844 -45.003906 34.734375 -48.28125 C 34.808594 -48.570312 34.882812 -48.863281 34.882812 -49.082031 C 34.882812 -50.539062 33.714844 -51.265625 32.40625 -51.265625 C 31.242188 -51.265625 29.855469 -50.609375 29.347656 -49.082031 C 27.234375 -50.464844 24.757812 -51.121094 21.484375 -51.195312 C 19.734375 -51.195312 17.550781 -50.609375 15.65625 -49.664062 L 13.910156 -49.226562 L 13.761719 -49.226562 L 13.542969 -49.082031 C 9.757812 -47.117188 7.792969 -43.839844 7.792969 -39.832031 C 7.792969 -38.230469 8.082031 -36.554688 8.738281 -34.734375 C 9.46875 -31.386719 11.070312 -28.328125 13.398438 -25.777344 L 14.710938 -24.46875 L 16.675781 -22.355469 C 18.859375 -20.097656 21.410156 -18.351562 22.429688 -16.019531 C 22.648438 -15.582031 22.71875 -15.074219 22.71875 -14.636719 C 22.71875 -10.851562 17.113281 -6.992188 13.617188 -6.410156 C 10.558594 -9.03125 7.5 -13.179688 7.71875 -17.476562 C 7.792969 -19.078125 6.699219 -19.734375 5.460938 -19.734375 C 4.003906 -19.734375 2.332031 -18.789062 2.113281 -17.1875 C 1.746094 -15.4375 1.527344 -13.617188 1.527344 -11.722656 C 1.527344 -7.28125 2.914062 -2.914062 7.429688 -0.726562 L 7.574219 -0.363281 C 9.394531 0.292969 11.796875 0.800781 14.273438 0.726562 C 15.4375 1.164062 16.675781 1.3125 17.769531 1.3125 Z M 17.769531 1.3125 "/></g></g></g></svg>