<svg fill="#000000" width="20px" height="20px" viewBox="0 0 32 32" version="1.1" xmlns="http://www.w3.org/2000/svg"><g id="SVGRepo_bgCarrier" stroke-width="0"></g><g id="SVGRepo_tracerCarrier" stroke-linecap="round" stroke-linejoin="round"></g><g id="SVGRepo_iconCarrier"> <title>omega</title> <path d="M16.164 4.561c-6.459 0-11.721 5.618-11.721 12.576 0 2.663 0.766 5.168 2.076 7.204-1.525-0.826-3.023-1.826-4.518-3.052v5.935h10.907c-2.995-2.075-5.087-5.131-5.087-8.621 0-4.653 3.736-8.425 8.343-8.425s8.343 3.772 8.343 8.425c0 3.49-2.092 6.546-5.087 8.621h10.907v-5.935c-1.499 1.24-3.014 2.259-4.558 3.093 1.329-2.045 2.116-4.561 2.116-7.244-0-6.958-5.262-12.576-11.721-12.576h-0z"></path> </g></svg>