<?xml version="1.0" encoding="UTF-8" standalone="no"?>
<!-- Uploaded to: SVG Repo, www.svgrepo.com, Generator: SVG Repo Mixer Tools -->

<svg
   width="20"
   height="20"
   viewBox="0 0 1.9 1.9"
   version="1.1"
   enable-background="new 0 0 76.00 76.00"
   xml:space="preserve"
   id="svg4920"
   sodipodi:docname="stamp-empty-svgrepo-com.svg"
   inkscape:version="1.2.2 (732a01da63, 2022-12-09)"
   xmlns:inkscape="http://www.inkscape.org/namespaces/inkscape"
   xmlns:sodipodi="http://sodipodi.sourceforge.net/DTD/sodipodi-0.dtd"
   xmlns="http://www.w3.org/2000/svg"
   xmlns:svg="http://www.w3.org/2000/svg"><defs
   id="defs4924" /><sodipodi:namedview
   id="namedview4922"
   pagecolor="#ffffff"
   bordercolor="#000000"
   borderopacity="0.25"
   inkscape:showpageshadow="2"
   inkscape:pageopacity="0.0"
   inkscape:pagecheckerboard="0"
   inkscape:deskcolor="#d1d1d1"
   showgrid="false"
   inkscape:zoom="31.4"
   inkscape:cx="10.031847"
   inkscape:cy="10.843949"
   inkscape:window-width="1920"
   inkscape:window-height="986"
   inkscape:window-x="-11"
   inkscape:window-y="-11"
   inkscape:window-maximized="1"
   inkscape:current-layer="svg4920" />
	<path
   fill="#000000"
   fill-opacity="1"
   stroke-width="0.01"
   stroke-linejoin="round"
   d="M 0.158347,1.9 C 0.158347,1.81244 0.087367,1.741653 0,1.741653 V 1.583347 c 0.08756,0 0.158347,-0.0709 0.158347,-0.158347 C 0.158347,1.33744 0.087367,1.266653 0,1.266653 V 1.108347 C 0.08756,1.108347 0.158347,1.037407 0.158347,0.95 0.158347,0.86245 0.087367,0.791653 0,0.791653 V 0.633347 c 0.08756,0 0.158347,-0.0709 0.158347,-0.158347 C 0.158347,0.38745 0.087367,0.316653 0,0.316653 V 0.158347 C 0.08756,0.158347 0.158347,0.087367 0.158347,0 h 0.158306 c 0,0.08756 0.07096,0.158347 0.158347,0.158347 0.08756,0 0.158347,-0.07098 0.158347,-0.158347 h 0.158306 c 0,0.08756 0.07091,0.158347 0.158347,0.158347 0.08756,0 0.158347,-0.07098 0.158347,-0.158347 h 0.158306 c 0,0.08756 0.07093,0.158347 0.158347,0.158347 0.08756,0 0.158347,-0.07098 0.158347,-0.158347 h 0.158306 c 0,0.08756 0.07094,0.158347 0.158347,0.158347 v 0.158306 c -0.08756,0 -0.158347,0.07096 -0.158347,0.158347 0,0.08756 0.07094,0.158347 0.158347,0.158347 v 0.158306 c -0.08756,0 -0.158347,0.07091 -0.158347,0.158347 0,0.08756 0.07094,0.158347 0.158347,0.158347 v 0.158306 c -0.08756,0 -0.158347,0.07093 -0.158347,0.158347 0,0.08756 0.07094,0.158347 0.158347,0.158347 V 1.741653 C 1.81244,1.741653 1.741653,1.812593 1.741653,1.9 H 1.583347 c 0,-0.08756 -0.0709,-0.158347 -0.158347,-0.158347 -0.08756,0 -0.158347,0.07094 -0.158347,0.158347 H 1.108347 C 1.108347,1.81244 1.037407,1.741653 0.95,1.741653 0.86245,1.741653 0.791653,1.812593 0.791653,1.9 H 0.633347 c 0,-0.08756 -0.0709,-0.158347 -0.158347,-0.158347 -0.08755,0 -0.158347,0.07094 -0.158347,0.158347 z M 0.395827,0.395827 V 1.504173 H 1.504173 V 0.395827 Z"
   id="path4918"
   style="fill:#f1e9da;fill-opacity:1" />
</svg>
