<?xml version="1.0" encoding="UTF-8" standalone="no"?>
<!-- Uploaded to: SVG Repo, www.svgrepo.com, Generator: SVG Repo Mixer Tools -->

<svg
   width="20"
   height="20"
   viewBox="0 0 1.9 1.9"
   version="1.1"
   enable-background="new 0 0 76.00 76.00"
   xml:space="preserve"
   id="svg4920"
   sodipodi:docname="stamp-empty-svgrepo-com.svg"
   inkscape:version="1.2.2 (732a01da63, 2022-12-09)"
   xmlns:inkscape="http://www.inkscape.org/namespaces/inkscape"
   xmlns:sodipodi="http://sodipodi.sourceforge.net/DTD/sodipodi-0.dtd"
   xmlns="http://www.w3.org/2000/svg"
   xmlns:svg="http://www.w3.org/2000/svg"><defs
   id="defs4924" /><sodipodi:namedview
   id="namedview4922"
   pagecolor="#ffffff"
   bordercolor="#000000"
   borderopacity="0.25"
   inkscape:showpageshadow="2"
   inkscape:pageopacity="0.0"
   inkscape:pagecheckerboard="0"
   inkscape:deskcolor="#d1d1d1"
   showgrid="false"
   inkscape:zoom="15.7"
   inkscape:cx="15.095541"
   inkscape:cy="11.305733"
   inkscape:window-width="1920"
   inkscape:window-height="986"
   inkscape:window-x="-11"
   inkscape:window-y="-11"
   inkscape:window-maximized="1"
   inkscape:current-layer="svg4920" />
	<path
   fill="#000000"
   fill-opacity="1"
   stroke-width="0.00691083"
   stroke-linejoin="round"
   d="m 0.40290221,1.6065286 c 0,-0.060511 -0.0490531,-0.1094309 -0.10943089,-0.1094309 V 1.3876952 c 0.0605112,0 0.10943089,-0.048998 0.10943089,-0.1094309 0,-0.060511 -0.0490531,-0.1094309 -0.10943089,-0.1094309 V 1.0594308 c 0.0605112,0 0.10943089,-0.049025 0.10943089,-0.10943082 0,-0.0605043 -0.0490531,-0.10943082 -0.10943089,-0.10943082 V 0.7311666 c 0.0605112,0 0.10943089,-0.0489978 0.10943089,-0.10943089 0,-0.0605043 -0.0490531,-0.10943089 -0.10943089,-0.10943089 V 0.40290227 c 0.0605112,0 0.10943089,-0.0490531 0.10943089,-0.10943089 h 0.10940255 c 0,0.0605112 0.0490393,0.10943089 0.10943089,0.10943089 0.0605112,0 0.10943089,-0.0490531 0.10943089,-0.10943089 H 0.8405691 c 0,0.0605112 0.0490047,0.10943089 0.10943082,0.10943089 0.060511,0 0.10943088,-0.0490531 0.10943088,-0.10943089 h 0.1094027 c 0,0.0605112 0.049018,0.10943089 0.1094309,0.10943089 0.060511,0 0.1094309,-0.0490531 0.1094309,-0.10943089 h 0.1094025 c 0,0.0605112 0.049025,0.10943089 0.1094309,0.10943089 v 0.10940255 c -0.060511,0 -0.1094309,0.0490393 -0.1094309,0.10943089 0,0.0605112 0.049025,0.10943089 0.1094309,0.10943089 v 0.10940257 c -0.060511,0 -0.1094309,0.0490047 -0.1094309,0.10943082 0,0.0605109 0.049025,0.10943081 0.1094309,0.10943081 v 0.1094026 c -0.060511,0 -0.1094309,0.049018 -0.1094309,0.1094309 0,0.060511 0.049025,0.1094309 0.1094309,0.1094309 v 0.1094025 c -0.060511,0 -0.1094309,0.049025 -0.1094309,0.1094309 H 1.3876953 c 0,-0.060511 -0.048998,-0.1094309 -0.1094309,-0.1094309 -0.060511,0 -0.1094309,0.049025 -0.1094309,0.1094309 H 1.0594308 c 0,-0.060511 -0.049025,-0.1094309 -0.10943088,-0.1094309 -0.0605043,0 -0.10943082,0.049025 -0.10943082,0.1094309 H 0.73116654 c 0,-0.060511 -0.0489978,-0.1094309 -0.10943089,-0.1094309 -0.0605043,0 -0.10943089,0.049025 -0.10943089,0.1094309 z M 0.56702056,0.56702062 V 1.3329794 H 1.3329795 V 0.56702062 Z"
   id="path4918"
   style="fill:#f1e9da;fill-opacity:1" />
</svg>
