<svg version="1.2" xmlns="http://www.w3.org/2000/svg" viewBox="0 0 545 360" width="545" height="360"><defs><clipPath clipPathUnits="userSpaceOnUse" id="cp1"><path d="m0 0h545v360h-545z"/></clipPath></defs><style>.a{fill:#fff}.b{fill:#f07525}.c{fill:#ebc989;stroke:#cf4e26;stroke-width:2}.d{fill:#cca151;stroke:#cca151}.e{fill:#161616}</style><g clip-path="url(#cp1)"><path class="a" d="m0 0h545.3v1841.1h-545.3z"/><path class="a" d="m0 0h545.3v360.2h-545.3z"/><path class="b" d="m0 0h545.3v360.2h-545.3z"/></g><path class="c" d="m36 32h479q0.2 0 0.4 0.1 0.2 0.1 0.3 0.2 0.1 0.1 0.2 0.3 0.1 0.2 0.1 0.4v287q0 1.6-0.6 3.1-0.6 1.4-1.7 2.6-1.2 1.1-2.6 1.7-1.5 0.6-3.1 0.6h-479q-0.2 0-0.4-0.1-0.2-0.1-0.3-0.2-0.1-0.1-0.2-0.3-0.1-0.2-0.1-0.4v-287q0-1.6 0.6-3.1 0.6-1.4 1.7-2.6 1.2-1.1 2.6-1.7 1.5-0.6 3.1-0.6z"/><path class="d" d="m80 110h383.5l0.5 2h-383.5z"/><path class="d" d="m80 144h383.5l0.5 2h-383.5z"/><path class="d" d="m80 177h383.5l0.5 2h-383.5z"/><path class="d" d="m80 211h383.5l0.5 2h-383.5z"/><path class="d" d="m80 245h383.5l0.5 2h-383.5z"/><path fill-rule="evenodd" class="e" d="m363.5 258.9q0.3 0 0.5 0.2 0.1 0.2 0.1 0.4 0.2 4.2 0.3 7.3 0.1 3.1 0.3 5.1 0 0 0.1 0 0.7 0 1.6-0.1 0.8-0.1 1.7-0.2 0.9-0.1 1.7-0.1 1.7 0 3 0.4 0.2 0.1 0.4 0.2 0.1 0.2 0.1 0.4 0 0.3-0.3 0.5-0.2 0.2-0.5 0.1-1.2-0.3-2.7-0.3-0.9 0-1.9 0.1-0.9 0.1-1.7 0.2-0.4 0-0.7 0.1-0.3 0-0.6 0-0.5 0-1-0.2-0.4-0.1-0.5-0.7-0.1-2-0.3-5.2-0.2-3.2-0.2-7.6 0-0.2 0.2-0.4 0.2-0.2 0.4-0.2zm16.8 4q2.4 0.2 3.9 2.4 0.5 0.6 0.7 1.4 0.2 0.7 0.2 1.6 0 1.3-0.6 2.4-0.7 1.1-1.6 1.6-0.5 0.4-1.3 0.6-0.7 0.2-1.4 0.2-1.5 0-2.5-0.6-1-0.6-1.6-1.6-0.9-1.2-0.9-2.7 0-0.4 0.1-0.8 0.3-2 1.6-3.2 1.4-1.2 3.1-1.3 0.1 0 0.3 0zm3.5 5.3q0-1.1-0.5-2-0.5-0.9-1.4-1.4-0.8-0.6-1.7-0.6-0.1 0-0.2 0-1 0-1.8 0.6-0.8 0.5-1.2 1.4-0.5 0.9-0.5 2 0 0.8 0.3 1.5 0.4 0.7 0.9 1.2 0.5 0.5 1.1 0.7 0.7 0.3 1.4 0.3 1 0 1.8-0.5 0.8-0.5 1.3-1.1 0.3-0.5 0.4-1 0.1-0.5 0.1-1.1zm3.3-4.5q0 0 0-0.1 0-0.3 0.2-0.4 0.2-0.2 0.4-0.2 0.2 0 0.4 0.2 0.2 0.1 0.2 0.4 1 7.3 2.1 8.2 1.2-0.8 3-8.2 0-0.2 0.2-0.3 0.2-0.2 0.4-0.2 0.2 0 0.4 0.2 0.2 0.2 0.2 0.4 0 0.1 0 0.2-1.4 5.7-2.5 7.7-0.8 1.5-1.7 1.5-0.3 0-0.6-0.2-0.9-0.5-1.5-2.8-0.7-2.2-1.2-6.4zm10.9 6q0.2 1.1 1.1 1.6 0.8 0.6 2 0.6 1.7 0 3.9-1.1 0.1 0 0.3 0 0.2 0 0.4 0.1 0.2 0.2 0.2 0.5 0 0.4-0.4 0.6-1.1 0.5-2.2 0.8-1.2 0.4-2.2 0.4-1.2 0-2.1-0.4-1-0.4-1.6-1.4-0.4-0.5-0.6-1.1-0.2-0.7-0.2-1.4 0-0.3 0-0.7 0.2-1.9 1.6-3.2 1.7-1.7 4.5-1.7 1.1 0 1.9 0.4 0.8 0.4 1.1 1.2 0.2 0.4 0.2 0.9 0 0.8-0.4 1.4-0.4 0.6-1.2 1.1-2.1 1.5-6.2 1.5 0 0-0.1-0.1zm-0.1-1.2q0.1 0 0.2 0 3.7 0 5.5-1.2 0.5-0.4 0.8-0.7 0.3-0.4 0.3-0.9 0-0.2-0.2-0.4-0.1-0.2-0.3-0.3-0.5-0.4-1.5-0.4-1.3 0-2.4 0.4-1 0.5-1.7 1.4-0.6 0.9-0.7 2.1zm11.2 3q0.6 0 0.9 0.5 0.2 0.5 0.2 1.1 0 0.5-0.1 1.1-0.1 0.6-0.3 1.1-0.2 0.5-0.3 0.8-0.2 0.4-0.3 0.5-0.2 0.3-0.6 0.3-0.3 0-0.5-0.3-0.2-0.2 0-0.6 0.1-0.5 0.1-0.9 0-0.1 0-0.2-0.1-0.4-0.1-0.7-0.1-0.3-0.1-0.5-0.1-0.4-0.1-0.7 0-0.4 0.2-0.8 0.1-0.3 0.4-0.5 0.3-0.2 0.6-0.2z"/><path fill-rule="evenodd" d="m61.2 68.4v-12.8q0-0.3 0.1-0.5 0.2-0.1 0.4-0.2 0.7-0.1 1.4-0.1 1.8 0 3.4 1 0.8 0.6 1.6 1.5 0.8 1 1.3 2.2 0.5 1.2 0.5 2.6 0 0.7-0.1 1.3-0.3 1.7-1.4 2.9-1.1 1.2-2.8 1.9-1.7 0.6-3.7 0.8-0.3 0-0.5-0.2-0.1-0.2-0.2-0.4zm1.2-12.3l0.1 11.6q1.5-0.2 2.8-0.8 1.2-0.5 2.1-1.4 0.9-0.9 1.1-2.2 0.1-0.6 0.1-1.1 0-1.2-0.4-2.3-0.4-1-1.1-1.8-0.6-0.8-1.4-1.2-1.2-0.9-2.6-0.9-0.3 0-0.7 0.1zm10.8 9.5q0.3 1 1.1 1.6 0.9 0.6 2.1 0.6 1.7 0 3.8-1.1 0.2-0.1 0.3-0.1 0.3 0 0.5 0.2 0.2 0.2 0.2 0.4 0 0.4-0.4 0.6-1.1 0.6-2.3 0.9-1.1 0.3-2.2 0.3-1.1 0-2-0.4-1-0.4-1.7-1.4-0.3-0.5-0.5-1.1-0.2-0.6-0.2-1.4 0-0.3 0-0.6 0.2-1.9 1.5-3.2 1.8-1.8 4.6-1.8 1 0 1.8 0.5 0.9 0.4 1.2 1.1 0.2 0.5 0.2 0.9 0 0.8-0.4 1.4-0.4 0.6-1.2 1.2-2.1 1.4-6.2 1.4-0.1 0-0.2 0zm-0.1-1.2q0.2-0.1 0.3-0.1 3.7 0 5.5-1.2 0.5-0.3 0.8-0.7 0.2-0.3 0.2-0.8 0-0.3-0.1-0.5-0.1-0.1-0.3-0.3-0.6-0.4-1.5-0.4-1.3 0-2.4 0.5-1.1 0.5-1.7 1.4-0.7 0.9-0.8 2.1zm18.7-2.3q0 0.1 0 0.2 0 0.3-0.1 0.6-0.1 1.5-0.1 2.7 0 1.7 0.3 2.8 0 0.1 0 0.1 0 0.3-0.2 0.5-0.2 0.1-0.5 0.1-0.2 0-0.3-0.1-0.2-0.1-0.3-0.3-0.3-1.1-0.3-2.9-0.9 1.5-2 2.4-0.6 0.5-1.3 0.6-0.4 0.1-0.8 0.1-0.6 0-1-0.2-0.5-0.2-0.8-0.5-0.6-0.6-0.9-1.5-0.4-0.9-0.4-2 0-1.5 0.7-2.9 1-2 3.1-2.6 0.8-0.3 1.5-0.3 1 0 1.8 0.4 1.4 0.8 1.6 2.8zm-1.3 0.1q-0.1-0.9-0.6-1.5-0.5-0.5-1.4-0.5-0.6 0-1.2 0.2-1.6 0.5-2.3 1.9-0.6 1.2-0.6 2.4 0 0.8 0.2 1.5 0.3 0.7 0.6 1 0.4 0.4 1 0.4 0.2 0 0.4 0 0.1-0.1 0.3-0.1 0.2 0 0.7-0.4 0.5-0.4 1-1.1 0.6-0.7 1.1-1.6 0.5-0.9 0.8-1.8 0-0.1 0-0.2 0-0.1 0-0.2zm4 6.8q-0.3 0-0.5-0.3-0.2-0.3-0.2-0.5 0-0.2 0.1-0.4 0.1-0.2 0.1-0.3 0-0.6 0.1-1.5 0.1-0.9 0.1-1.7 0-0.7-0.1-1.4 0-2.2-0.1-2.6-0.1-0.2-0.1-0.4 0-0.3 0.2-0.5 0.1-0.1 0.4-0.1 0.3 0 0.4 0.1 0.2 0.1 0.2 0.3 0.2 0.8 0.3 2.5 1.4-2.8 3.8-3.1 0.1 0 0.1 0 0.3 0 0.5 0.2 0.1 0.2 0.1 0.5 0 0.2-0.1 0.4-0.1 0.1-0.4 0.2-2.5 0.3-3.7 4.4-0.2 1-0.4 2.1 0 0.4 0 0.7-0.1 0.2-0.1 0.5 0 0.1 0.1 0.2 0 0 0 0.1 0 0.2-0.3 0.4-0.3 0.2-0.5 0.2zm20.6-5.4q0 1.7-0.4 2.9-0.3 1.3-1.3 2-0.9 0.6-2.4 0.6-1.4 0-3.2-0.5-0.2-0.1-0.3-0.2-0.1-0.2-0.1-0.4 0-0.2 0.2-0.4 0.1-0.3 0.4-0.3 0.1 0 0.2 0.1 1.6 0.5 2.7 0.5 1.5 0 2.2-0.9 0.8-1 0.8-3.4 0-0.5-0.1-1.3-0.1-0.8-0.1-1.8-0.1-0.9-0.2-1.9-0.1-1-0.2-1.8 0-0.9 0-1.3 0-0.3 0.2-0.5 0.2-0.1 0.4-0.1 0.3 0 0.5 0.1 0.2 0.2 0.2 0.5 0 0.4 0 1.2 0.1 0.9 0.2 1.8 0 1 0.1 2 0.1 1 0.2 1.8 0 0.8 0 1.3zm10.6-1.5q0 0.1 0 0.2 0 0.3 0 0.6-0.2 1.5-0.2 2.7 0 1.7 0.3 2.8 0 0.1 0 0.1 0 0.3-0.2 0.5-0.2 0.1-0.4 0.1-0.2 0-0.4-0.1-0.2-0.1-0.2-0.3-0.3-1.1-0.3-2.9-1 1.5-2 2.4-0.7 0.5-1.4 0.6-0.4 0.1-0.8 0.1-0.5 0-1-0.2-0.4-0.2-0.8-0.5-0.6-0.6-0.9-1.5-0.3-0.9-0.3-2 0-1.5 0.7-2.9 1-2 3.1-2.6 0.7-0.3 1.5-0.3 0.9 0 1.7 0.4 1.4 0.8 1.6 2.8zm-1.3 0.1q0-0.9-0.6-1.5-0.5-0.5-1.4-0.5-0.5 0-1.2 0.2-1.5 0.5-2.3 1.9-0.6 1.2-0.6 2.4 0 0.8 0.3 1.5 0.2 0.7 0.5 1 0.5 0.4 1 0.4 0.2 0 0.4 0 0.2-0.1 0.4-0.1 0.1 0 0.6-0.4 0.5-0.4 1.1-1.1 0.5-0.7 1-1.6 0.5-0.9 0.8-1.8 0-0.1 0-0.2 0-0.1 0-0.2zm4.8 3.4q0.2 1 1 1.6 0.9 0.6 2.1 0.6 1.7 0 3.9-1.1 0.1-0.1 0.2-0.1 0.3 0 0.5 0.2 0.2 0.2 0.2 0.4 0 0.4-0.4 0.6-1.1 0.6-2.2 0.9-1.2 0.3-2.3 0.3-1.1 0-2-0.4-1-0.4-1.6-1.4-0.4-0.5-0.6-1.1-0.2-0.6-0.2-1.4 0-0.3 0-0.6 0.2-1.9 1.6-3.2 1.7-1.8 4.5-1.8 1.1 0 1.9 0.5 0.8 0.4 1.1 1.1 0.2 0.5 0.2 0.9 0 0.8-0.4 1.4-0.4 0.6-1.2 1.2-2.1 1.4-6.2 1.4 0 0-0.1 0zm-0.2-1.2q0.2-0.1 0.3-0.1 3.7 0 5.5-1.2 0.5-0.3 0.8-0.7 0.2-0.3 0.2-0.8 0-0.3-0.1-0.5-0.1-0.1-0.3-0.3-0.5-0.4-1.5-0.4-1.3 0-2.4 0.5-1 0.5-1.7 1.4-0.7 0.9-0.8 2.1zm10.1 2v-11.1q0-0.3 0.2-0.5 0.2-0.1 0.4-0.1 0.2 0 0.4 0.1 0.2 0.2 0.2 0.5v5.8q1.1-1.9 2.8-2.2 0.3 0 0.5 0 1.4 0 2.5 1 0.9 0.8 1.4 2 0.5 1.2 0.5 2.7 0 2-1 4.1-0.1 0.3-0.6 0.3-0.2 0-0.5-0.3-0.2-0.2 0-0.6 0.9-1.8 0.9-3.5 0-1.2-0.4-2.2-0.4-0.9-1.1-1.5-0.8-0.7-1.7-0.7-0.8 0-1.4 0.5-0.6 0.6-1 1.4-0.3 0.8-0.5 1.6-0.3 1.2-0.3 2.7v2q0 0.3-0.2 0.4-0.2 0.2-0.5 0.2-0.2 0-0.4-0.2-0.2-0.1-0.2-0.4 0-0.4 0-0.9 0-0.3 0-0.6 0-0.2 0-0.5zm19.5-4.3q0.1 0.1 0.1 0.2 0 0.3-0.1 0.6-0.2 1.5-0.2 2.7 0 1.7 0.3 2.8 0 0.1 0 0.1 0 0.3-0.2 0.5-0.2 0.1-0.4 0.1-0.2 0-0.4-0.1-0.1-0.1-0.2-0.3-0.3-1.1-0.3-2.9-1 1.5-2 2.4-0.7 0.5-1.3 0.6-0.5 0.1-0.8 0.1-0.6 0-1.1-0.2-0.4-0.2-0.8-0.5-0.6-0.6-0.9-1.5-0.3-0.9-0.3-2 0-1.5 0.7-2.9 1-2 3.1-2.6 0.8-0.3 1.5-0.3 0.9 0 1.7 0.4 1.4 0.8 1.6 2.8zm-1.2 0.1q-0.1-0.9-0.6-1.5-0.6-0.5-1.5-0.5-0.5 0-1.1 0.2-1.6 0.5-2.3 1.9-0.6 1.2-0.6 2.4 0 0.8 0.2 1.5 0.2 0.7 0.6 1 0.4 0.4 1 0.4 0.1 0 0.3 0 0.2-0.1 0.4-0.1 0.2 0 0.7-0.4 0.4-0.4 1-1.1 0.5-0.7 1-1.6 0.5-0.9 0.8-1.8 0-0.1 0-0.2 0.1-0.1 0.1-0.2zm3.9-3.4q0.3 0 0.5 0.3 0.7 0.8 1 2.6 1.4-2.4 3.5-2.7 0.3-0.1 0.6-0.1 1.2 0 2.1 0.6 0.9 0.5 1.5 1.4 0.5 0.9 0.7 1.9 0.2 0.6 0.2 1.3 0 2.2-1.4 4.6-0.2 0.3-0.5 0.3-0.3 0-0.6-0.3-0.2-0.3 0-0.7 1.2-2.1 1.2-3.9 0-0.5-0.1-1.1-0.2-0.7-0.6-1.4-0.4-0.6-1-1-0.7-0.4-1.5-0.4-0.2 0-0.5 0-0.9 0.2-1.6 0.9-0.7 0.7-1.1 1.7-0.4 1-0.6 2.1 0 0.1 0 0.2 0 1.4-0.1 2.9l-0.1 0.3q0 0.3-0.2 0.4-0.2 0.2-0.4 0.2-0.2 0-0.4-0.2-0.2-0.1-0.2-0.4-0.1-0.5-0.1-0.9 0-1.4 0.2-2.6 0-2.3-0.3-3.4-0.3-1.1-0.6-1.4-0.2-0.3-0.2-0.5 0-0.3 0.2-0.5 0.2-0.2 0.4-0.2zm13.2 8.5q0.7 0 1 0.5 0.2 0.5 0.2 1.1 0 0.6-0.1 1.2-0.1 0.6-0.3 1.1-0.2 0.5-0.3 0.7-0.3 0.5-0.4 0.6-0.1 0.2-0.5 0.2-0.3 0-0.5-0.2-0.2-0.2-0.1-0.6 0.2-0.6 0.2-0.9 0-0.2 0-0.3-0.1-0.4-0.1-0.7-0.1-0.3-0.2-0.4-0.1-0.4-0.1-0.7 0-0.5 0.2-0.8 0.2-0.4 0.5-0.6 0.2-0.2 0.5-0.2z"/></svg>